<svg width="101" height="130" viewBox="0 0 101 130" fill="none" xmlns="http://www.w3.org/2000/svg">
<g style="mix-blend-mode:plus-lighter">
<mask id="mask0_129_2336" style="mask-type:alpha" maskUnits="userSpaceOnUse" x="0" y="0" width="101" height="130">
<rect width="101" height="130" fill="#9F9F9F"/>
</mask>
<g mask="url(#mask0_129_2336)">
<path d="M26.0625 58.6875V74.0625C26.0625 81.0208 25.4375 86.9792 24.1875 91.9375C22.9375 96.8958 21.1667 100.958 18.875 104.125C16.625 107.25 13.9167 109.562 10.75 111.062C7.58333 112.521 4.08333 113.25 0.25 113.25C-2.79167 113.25 -5.64583 112.792 -8.3125 111.875C-10.9792 110.917 -13.3958 109.458 -15.5625 107.5C-17.6875 105.5 -19.5208 102.958 -21.0625 99.875C-22.5625 96.7917 -23.7292 93.125 -24.5625 88.875C-25.3542 84.5833 -25.75 79.6458 -25.75 74.0625V58.6875C-25.75 51.6875 -25.125 45.7292 -23.875 40.8125C-22.5833 35.8958 -20.7917 31.875 -18.5 28.75C-16.2083 25.625 -13.4792 23.3542 -10.3125 21.9375C-7.14583 20.4792 -3.64583 19.75 0.1875 19.75C3.22917 19.75 6.08333 20.2083 8.75 21.125C11.4167 22.0417 13.7917 23.4792 15.875 25.4375C18 27.3542 19.8333 29.8542 21.375 32.9375C22.9167 35.9792 24.0833 39.6458 24.875 43.9375C25.6667 48.1875 26.0625 53.1042 26.0625 58.6875ZM10.0625 76.3125V56.25C10.0625 52.8333 9.91667 49.8333 9.625 47.25C9.33333 44.6667 8.91667 42.5 8.375 40.75C7.83333 38.9583 7.14583 37.5 6.3125 36.375C5.52083 35.25 4.60417 34.4375 3.5625 33.9375C2.52083 33.3958 1.39583 33.125 0.1875 33.125C-1.35417 33.125 -2.72917 33.5417 -3.9375 34.375C-5.14583 35.1667 -6.1875 36.4792 -7.0625 38.3125C-7.9375 40.1042 -8.60417 42.4792 -9.0625 45.4375C-9.52083 48.3958 -9.75 52 -9.75 56.25V76.3125C-9.75 79.7708 -9.60417 82.8125 -9.3125 85.4375C-8.97917 88.0208 -8.54167 90.2292 -8 92.0625C-7.41667 93.8958 -6.72917 95.3958 -5.9375 96.5625C-5.14583 97.6875 -4.22917 98.5208 -3.1875 99.0625C-2.14583 99.6042 -1 99.875 0.25 99.875C1.79167 99.875 3.16667 99.4583 4.375 98.625C5.625 97.75 6.66667 96.3958 7.5 94.5625C8.33333 92.7292 8.95833 90.3125 9.375 87.3125C9.83333 84.2708 10.0625 80.6042 10.0625 76.3125ZM89.065 98.625V112H36.065V100.5L60.815 68.75C63.315 65.3333 65.2733 62.3333 66.69 59.75C68.1067 57.1667 69.1067 54.8542 69.69 52.8125C70.2733 50.7292 70.565 48.7292 70.565 46.8125C70.565 44.1042 70.2108 41.7292 69.5025 39.6875C68.7942 37.6042 67.7525 36 66.3775 34.875C65.0442 33.7083 63.3983 33.125 61.44 33.125C58.9817 33.125 56.9608 33.8125 55.3775 35.1875C53.7942 36.5625 52.6067 38.4583 51.815 40.875C51.065 43.2917 50.69 46.0417 50.69 49.125H34.6275C34.6275 43.7917 35.69 38.8958 37.815 34.4375C39.9817 29.9375 43.065 26.3542 47.065 23.6875C51.1067 21.0208 55.9608 19.6875 61.6275 19.6875C67.0442 19.6875 71.6067 20.7292 75.315 22.8125C79.0233 24.8958 81.8358 27.8333 83.7525 31.625C85.7108 35.4167 86.69 39.9375 86.69 45.1875C86.69 48.1042 86.2942 50.9792 85.5025 53.8125C84.7108 56.6458 83.6067 59.4583 82.19 62.25C80.7733 65.0417 79.0442 67.875 77.0025 70.75C74.9608 73.5833 72.69 76.5 70.19 79.5L56.44 98.625H89.065Z" fill="white"/>
</g>
</g>
</svg>
