<svg width="101" height="130" viewBox="0 0 101 130" fill="none" xmlns="http://www.w3.org/2000/svg">
<g style="mix-blend-mode:plus-lighter">
<mask id="mask0_129_2339" style="mask-type:alpha" maskUnits="userSpaceOnUse" x="0" y="0" width="101" height="130">
<rect width="101" height="130" fill="#9F9F9F"/>
</mask>
<g mask="url(#mask0_129_2339)">
<path d="M26.0625 58.6875V74.0625C26.0625 81.0208 25.4375 86.9792 24.1875 91.9375C22.9375 96.8958 21.1667 100.958 18.875 104.125C16.625 107.25 13.9167 109.562 10.75 111.062C7.58333 112.521 4.08333 113.25 0.25 113.25C-2.79167 113.25 -5.64583 112.792 -8.3125 111.875C-10.9792 110.917 -13.3958 109.458 -15.5625 107.5C-17.6875 105.5 -19.5208 102.958 -21.0625 99.875C-22.5625 96.7917 -23.7292 93.125 -24.5625 88.875C-25.3542 84.5833 -25.75 79.6458 -25.75 74.0625V58.6875C-25.75 51.6875 -25.125 45.7292 -23.875 40.8125C-22.5833 35.8958 -20.7917 31.875 -18.5 28.75C-16.2083 25.625 -13.4792 23.3542 -10.3125 21.9375C-7.14583 20.4792 -3.64583 19.75 0.1875 19.75C3.22917 19.75 6.08333 20.2083 8.75 21.125C11.4167 22.0417 13.7917 23.4792 15.875 25.4375C18 27.3542 19.8333 29.8542 21.375 32.9375C22.9167 35.9792 24.0833 39.6458 24.875 43.9375C25.6667 48.1875 26.0625 53.1042 26.0625 58.6875ZM10.0625 76.3125V56.25C10.0625 52.8333 9.91667 49.8333 9.625 47.25C9.33333 44.6667 8.91667 42.5 8.375 40.75C7.83333 38.9583 7.14583 37.5 6.3125 36.375C5.52083 35.25 4.60417 34.4375 3.5625 33.9375C2.52083 33.3958 1.39583 33.125 0.1875 33.125C-1.35417 33.125 -2.72917 33.5417 -3.9375 34.375C-5.14583 35.1667 -6.1875 36.4792 -7.0625 38.3125C-7.9375 40.1042 -8.60417 42.4792 -9.0625 45.4375C-9.52083 48.3958 -9.75 52 -9.75 56.25V76.3125C-9.75 79.7708 -9.60417 82.8125 -9.3125 85.4375C-8.97917 88.0208 -8.54167 90.2292 -8 92.0625C-7.41667 93.8958 -6.72917 95.3958 -5.9375 96.5625C-5.14583 97.6875 -4.22917 98.5208 -3.1875 99.0625C-2.14583 99.6042 -1 99.875 0.25 99.875C1.79167 99.875 3.16667 99.4583 4.375 98.625C5.625 97.75 6.66667 96.3958 7.5 94.5625C8.33333 92.7292 8.95833 90.3125 9.375 87.3125C9.83333 84.2708 10.0625 80.6042 10.0625 76.3125ZM51.44 59H59.69C62.065 59 64.0442 58.4583 65.6275 57.375C67.2108 56.25 68.3775 54.6875 69.1275 52.6875C69.8775 50.6875 70.2525 48.375 70.2525 45.75C70.2525 43.2083 69.8983 41 69.19 39.125C68.4817 37.2083 67.4192 35.7292 66.0025 34.6875C64.6275 33.6458 62.8567 33.125 60.69 33.125C58.9817 33.125 57.3983 33.5833 55.94 34.5C54.4817 35.4167 53.3358 36.75 52.5025 38.5C51.6692 40.2083 51.2525 42.2292 51.2525 44.5625H35.2525C35.2525 39.6458 36.3358 35.3333 38.5025 31.625C40.7108 27.875 43.7108 24.9583 47.5025 22.875C51.2942 20.75 55.565 19.6875 60.315 19.6875C65.44 19.6875 69.94 20.6667 73.815 22.625C77.7317 24.5833 80.7733 27.5 82.94 31.375C85.1483 35.2083 86.2525 39.9583 86.2525 45.625C86.2525 48.375 85.7317 51.0833 84.69 53.75C83.69 56.4167 82.1692 58.8542 80.1275 61.0625C78.0858 63.2292 75.565 64.9583 72.565 66.25C69.6067 67.5417 66.1692 68.1875 62.2525 68.1875H51.44V59ZM51.44 72.125V63.125H62.2525C66.7108 63.125 70.5233 63.7083 73.69 64.875C76.8983 66.0417 79.5025 67.6875 81.5025 69.8125C83.5442 71.9375 85.0233 74.4167 85.94 77.25C86.8983 80.0833 87.3775 83.1667 87.3775 86.5C87.3775 90.75 86.69 94.5417 85.315 97.875C83.9817 101.167 82.065 103.958 79.565 106.25C77.1067 108.542 74.2317 110.292 70.94 111.5C67.69 112.667 64.1483 113.25 60.315 113.25C56.9817 113.25 53.7525 112.729 50.6275 111.688C47.5442 110.604 44.7733 109 42.315 106.875C39.8983 104.708 37.9817 102 36.565 98.75C35.19 95.4583 34.5025 91.625 34.5025 87.25H50.5025C50.5025 89.7083 50.94 91.8958 51.815 93.8125C52.69 95.6875 53.8775 97.1667 55.3775 98.25C56.8775 99.3333 58.6275 99.875 60.6275 99.875C62.8358 99.875 64.7317 99.3333 66.315 98.25C67.94 97.1667 69.1692 95.625 70.0025 93.625C70.8775 91.5833 71.315 89.1667 71.315 86.375C71.315 83 70.8567 80.2708 69.94 78.1875C69.0233 76.1042 67.69 74.5833 65.94 73.625C64.2317 72.625 62.1483 72.125 59.69 72.125H51.44Z" fill="white"/>
</g>
</g>
</svg>
