<svg width="101" height="130" viewBox="0 0 101 130" fill="none" xmlns="http://www.w3.org/2000/svg">
<mask id="mask0_129_2345" style="mask-type:alpha" maskUnits="userSpaceOnUse" x="0" y="0" width="101" height="130">
<rect width="101" height="130" fill="#9F9F9F"/>
</mask>
<g mask="url(#mask0_129_2345)">
<g style="mix-blend-mode:plus-lighter">
<path d="M26.0625 58.6875V74.0625C26.0625 81.0208 25.4375 86.9792 24.1875 91.9375C22.9375 96.8958 21.1667 100.958 18.875 104.125C16.625 107.25 13.9167 109.562 10.75 111.062C7.58333 112.521 4.08333 113.25 0.25 113.25C-2.79167 113.25 -5.64583 112.792 -8.3125 111.875C-10.9792 110.917 -13.3958 109.458 -15.5625 107.5C-17.6875 105.5 -19.5208 102.958 -21.0625 99.875C-22.5625 96.7917 -23.7292 93.125 -24.5625 88.875C-25.3542 84.5833 -25.75 79.6458 -25.75 74.0625V58.6875C-25.75 51.6875 -25.125 45.7292 -23.875 40.8125C-22.5833 35.8958 -20.7917 31.875 -18.5 28.75C-16.2083 25.625 -13.4792 23.3542 -10.3125 21.9375C-7.14583 20.4792 -3.64583 19.75 0.1875 19.75C3.22917 19.75 6.08333 20.2083 8.75 21.125C11.4167 22.0417 13.7917 23.4792 15.875 25.4375C18 27.3542 19.8333 29.8542 21.375 32.9375C22.9167 35.9792 24.0833 39.6458 24.875 43.9375C25.6667 48.1875 26.0625 53.1042 26.0625 58.6875ZM10.0625 76.3125V56.25C10.0625 52.8333 9.91667 49.8333 9.625 47.25C9.33333 44.6667 8.91667 42.5 8.375 40.75C7.83333 38.9583 7.14583 37.5 6.3125 36.375C5.52083 35.25 4.60417 34.4375 3.5625 33.9375C2.52083 33.3958 1.39583 33.125 0.1875 33.125C-1.35417 33.125 -2.72917 33.5417 -3.9375 34.375C-5.14583 35.1667 -6.1875 36.4792 -7.0625 38.3125C-7.9375 40.1042 -8.60417 42.4792 -9.0625 45.4375C-9.52083 48.3958 -9.75 52 -9.75 56.25V76.3125C-9.75 79.7708 -9.60417 82.8125 -9.3125 85.4375C-8.97917 88.0208 -8.54167 90.2292 -8 92.0625C-7.41667 93.8958 -6.72917 95.3958 -5.9375 96.5625C-5.14583 97.6875 -4.22917 98.5208 -3.1875 99.0625C-2.14583 99.6042 -1 99.875 0.25 99.875C1.79167 99.875 3.16667 99.4583 4.375 98.625C5.625 97.75 6.66667 96.3958 7.5 94.5625C8.33333 92.7292 8.95833 90.3125 9.375 87.3125C9.83333 84.2708 10.0625 80.6042 10.0625 76.3125ZM89.8775 78.5625V91.9375H34.315L33.69 81.625L65.315 21H78.0025L65.065 45.75L49.7525 78.5625H89.8775ZM81.6275 21V112H65.565V21H81.6275Z" fill="white"/>
</g>
</g>
</svg>
