<svg width="371" height="633" viewBox="0 0 371 633" fill="none" xmlns="http://www.w3.org/2000/svg">
<path d="M21 541H103" stroke="#80858E" stroke-width="0.99" stroke-linecap="round" stroke-linejoin="round"/>
<path d="M28.65 541.35C28.8433 541.543 29.1567 541.543 29.35 541.35L32.5002 538.2C32.6935 538.007 32.6935 537.693 32.5002 537.5C32.3069 537.307 31.9935 537.307 31.8001 537.5L29 540.3L26.1999 537.5C26.0065 537.307 25.6931 537.307 25.4998 537.5C25.3065 537.693 25.3065 538.007 25.4998 538.2L28.65 541.35ZM29.35 39.65C29.1567 39.4567 28.8433 39.4567 28.65 39.65L25.4998 42.8001C25.3065 42.9935 25.3065 43.3069 25.4998 43.5002C25.6931 43.6935 26.0065 43.6935 26.1999 43.5002L29 40.7L31.8001 43.5002C31.9935 43.6935 32.3069 43.6935 32.5002 43.5002C32.6935 43.3069 32.6935 42.9935 32.5002 42.8001L29.35 39.65ZM28.505 40V41.9881H29.495V40H28.505ZM28.505 45.9643V49.9405H29.495V45.9643H28.505ZM28.505 53.9167V57.8929H29.495V53.9167H28.505ZM28.505 61.869V65.8452H29.495V61.869H28.505ZM28.505 69.8214V73.7976H29.495V69.8214H28.505ZM28.505 77.7738V81.75H29.495V77.7738H28.505ZM28.505 85.7262V89.7024H29.495V85.7262H28.505ZM28.505 93.6786V97.6548H29.495V93.6786H28.505ZM28.505 101.631V105.607H29.495V101.631H28.505ZM28.505 109.583V113.56H29.495V109.583H28.505ZM28.505 117.536V121.512H29.495V117.536H28.505ZM28.505 125.488V129.464H29.495V125.488H28.505ZM28.505 133.44V137.417H29.495V133.44H28.505ZM28.505 141.393V145.369H29.495V141.393H28.505ZM28.505 149.345V153.321H29.495V149.345H28.505ZM28.505 157.298V161.274H29.495V157.298H28.505ZM28.505 165.25V169.226H29.495V165.25H28.505ZM28.505 173.202V177.179H29.495V173.202H28.505ZM28.505 181.155V185.131H29.495V181.155H28.505ZM28.505 189.107V193.083H29.495V189.107H28.505ZM28.505 197.06V201.036H29.495V197.06H28.505ZM28.505 205.012V208.988H29.495V205.012H28.505ZM28.505 212.964V216.941H29.495V212.964H28.505ZM28.505 220.917V224.893H29.495V220.917H28.505ZM28.505 228.869V232.845H29.495V228.869H28.505ZM28.505 236.821V240.798H29.495V236.821H28.505ZM28.505 244.774V248.75H29.495V244.774H28.505ZM28.505 252.726V256.702H29.495V252.726H28.505ZM28.505 260.679V264.655H29.495V260.679H28.505ZM28.505 268.631V272.607H29.495V268.631H28.505ZM28.505 276.583V280.56H29.495V276.583H28.505ZM28.505 284.536V288.512H29.495V284.536H28.505ZM28.505 292.488V296.464H29.495V292.488H28.505ZM28.505 300.441V304.417H29.495V300.441H28.505ZM28.505 308.393V312.369H29.495V308.393H28.505ZM28.505 316.345V320.322H29.495V316.345H28.505ZM28.505 324.298V328.274H29.495V324.298H28.505ZM28.505 332.25V336.226H29.495V332.25H28.505ZM28.505 340.203V344.179H29.495V340.203H28.505ZM28.505 348.155V352.131H29.495V348.155H28.505ZM28.505 356.107V360.084H29.495V356.107H28.505ZM28.505 364.06V368.036H29.495V364.06H28.505ZM28.505 372.012V375.988H29.495V372.012H28.505ZM28.505 379.965V383.941H29.495V379.965H28.505ZM28.505 387.917V391.893H29.495V387.917H28.505ZM28.505 395.869V399.846H29.495V395.869H28.505ZM28.505 403.822V407.798H29.495V403.822H28.505ZM28.505 411.774V415.75H29.495V411.774H28.505ZM28.505 419.727V423.703H29.495V419.727H28.505ZM28.505 427.679V431.655H29.495V427.679H28.505ZM28.505 435.631V439.607H29.495V435.631H28.505ZM28.505 443.584V447.56H29.495V443.584H28.505ZM28.505 451.536V455.512H29.495V451.536H28.505ZM28.505 459.488V463.465H29.495V459.488H28.505ZM28.505 467.441V471.417H29.495V467.441H28.505ZM28.505 475.393V479.369H29.495V475.393H28.505ZM28.505 483.346V487.322H29.495V483.346H28.505ZM28.505 491.298V495.274H29.495V491.298H28.505ZM28.505 499.25V503.227H29.495V499.25H28.505ZM28.505 507.203V511.179H29.495V507.203H28.505ZM28.505 515.155V519.131H29.495V515.155H28.505ZM28.505 523.108V527.084H29.495V523.108H28.505ZM28.505 531.06V535.036H29.495V531.06H28.505ZM28.505 539.012V541H29.495V539.012H28.505Z" fill="#80858E"/>
<path d="M63.65 541.35C63.8433 541.543 64.1567 541.543 64.35 541.35L67.5002 538.2C67.6935 538.007 67.6935 537.693 67.5002 537.5C67.3069 537.307 66.9935 537.307 66.8001 537.5L64 540.3L61.1999 537.5C61.0065 537.307 60.6931 537.307 60.4998 537.5C60.3065 537.693 60.3065 538.007 60.4998 538.2L63.65 541.35ZM64.35 192.65C64.1567 192.457 63.8433 192.457 63.65 192.65L60.4998 195.8C60.3065 195.993 60.3065 196.307 60.4998 196.5C60.6931 196.693 61.0065 196.693 61.1999 196.5L64 193.7L66.8001 196.5C66.9935 196.693 67.3069 196.693 67.5002 196.5C67.6935 196.307 67.6935 195.993 67.5002 195.8L64.35 192.65ZM63.505 193L63.505 194.977H64.495V193H63.505ZM63.505 198.932L63.505 202.886H64.495L64.495 198.932H63.505ZM63.505 206.841L63.505 210.795H64.495L64.495 206.841H63.505ZM63.505 214.75L63.505 218.705H64.495L64.495 214.75H63.505ZM63.505 222.659L63.505 226.614H64.495L64.495 222.659H63.505ZM63.505 230.568L63.505 234.523H64.495L64.495 230.568H63.505ZM63.505 238.477L63.505 242.432H64.495L64.495 238.477H63.505ZM63.505 246.386L63.505 250.341H64.495L64.495 246.386H63.505ZM63.505 254.295L63.505 258.25H64.495L64.495 254.295H63.505ZM63.505 262.205L63.505 266.159H64.495L64.495 262.205H63.505ZM63.505 270.114L63.505 274.068H64.495L64.495 270.114H63.505ZM63.505 278.023L63.505 281.977H64.495L64.495 278.023H63.505ZM63.505 285.932L63.505 289.886H64.495L64.495 285.932H63.505ZM63.505 293.841L63.505 297.795H64.495L64.495 293.841H63.505ZM63.505 301.75L63.505 305.705H64.495L64.495 301.75H63.505ZM63.505 309.659L63.505 313.614H64.495L64.495 309.659H63.505ZM63.505 317.568L63.505 321.523H64.495L64.495 317.568H63.505ZM63.505 325.477L63.505 329.432H64.495L64.495 325.477H63.505ZM63.505 333.386L63.505 337.341H64.495L64.495 333.386H63.505ZM63.505 341.295L63.505 345.25H64.495L64.495 341.295H63.505ZM63.505 349.205L63.505 353.159H64.495L64.495 349.205H63.505ZM63.505 357.114L63.505 361.068H64.495L64.495 357.114H63.505ZM63.505 365.023L63.505 368.977H64.495L64.495 365.023H63.505ZM63.505 372.932L63.505 376.886H64.495L64.495 372.932H63.505ZM63.505 380.841L63.505 384.795H64.495L64.495 380.841H63.505ZM63.505 388.75L63.505 392.705H64.495L64.495 388.75H63.505ZM63.505 396.659L63.505 400.614H64.495L64.495 396.659H63.505ZM63.505 404.568L63.505 408.523H64.495L64.495 404.568H63.505ZM63.505 412.477L63.505 416.432H64.495L64.495 412.477H63.505ZM63.505 420.386L63.505 424.341H64.495L64.495 420.386H63.505ZM63.505 428.295L63.505 432.25H64.495L64.495 428.295H63.505ZM63.505 436.205L63.505 440.159H64.495L64.495 436.205H63.505ZM63.505 444.114L63.505 448.068H64.495L64.495 444.114H63.505ZM63.505 452.023L63.505 455.977H64.495L64.495 452.023H63.505ZM63.505 459.932L63.505 463.886H64.495L64.495 459.932H63.505ZM63.505 467.841L63.505 471.796H64.495L64.495 467.841H63.505ZM63.505 475.75L63.505 479.705H64.495L64.495 475.75H63.505ZM63.505 483.659L63.505 487.614H64.495L64.495 483.659H63.505ZM63.505 491.568L63.505 495.523H64.495L64.495 491.568H63.505ZM63.505 499.477L63.505 503.432H64.495L64.495 499.477H63.505ZM63.505 507.387L63.505 511.341H64.495L64.495 507.387H63.505ZM63.505 515.296L63.505 519.25H64.495L64.495 515.296H63.505ZM63.505 523.205L63.505 527.159H64.495L64.495 523.205H63.505ZM63.505 531.114L63.505 535.068H64.495L64.495 531.114H63.505ZM63.505 539.023L63.505 541H64.495V539.023H63.505Z" fill="#80858E"/>
<path d="M110.65 601.853C110.457 602.047 110.457 602.36 110.65 602.553L113.8 605.703C113.993 605.897 114.307 605.897 114.5 605.703C114.693 605.51 114.693 605.197 114.5 605.003L111.7 602.203L114.5 599.403C114.693 599.21 114.693 598.896 114.5 598.703C114.307 598.51 113.993 598.51 113.8 598.703L110.65 601.853ZM368.974 602.553C369.168 602.36 369.168 602.047 368.974 601.853L365.824 598.703C365.631 598.51 365.317 598.51 365.124 598.703C364.931 598.896 364.931 599.21 365.124 599.403L367.924 602.203L365.124 605.003C364.931 605.197 364.931 605.51 365.124 605.703C365.317 605.897 365.631 605.897 365.824 605.703L368.974 602.553ZM111 602.698H113.013V601.708H111V602.698ZM117.038 602.698H121.063V601.708H117.038V602.698ZM125.089 602.698H129.114V601.708H125.089V602.698ZM133.14 602.698H137.165V601.708H133.14V602.698ZM141.19 602.698H145.216V601.708H141.19V602.698ZM149.241 602.698H153.266V601.708H149.241V602.698ZM157.292 602.698H161.317V601.708H157.292V602.698ZM165.343 602.698H169.368V601.708H165.343V602.698ZM173.393 602.698H177.419V601.708H173.393V602.698ZM181.444 602.698H185.47V601.708H181.444V602.698ZM189.495 602.698H193.52V601.708H189.495V602.698ZM197.546 602.698H201.571V601.708H197.546V602.698ZM205.596 602.698H209.622V601.708H205.596V602.698ZM213.647 602.698H217.673V601.708H213.647V602.698ZM221.698 602.698H225.723V601.708H221.698V602.698ZM229.749 602.698H233.774V601.708H229.749V602.698ZM237.8 602.698H241.825V601.708H237.8V602.698ZM245.85 602.698H249.876V601.708H245.85V602.698ZM253.901 602.698H257.926V601.708H253.901V602.698ZM261.952 602.698H265.977V601.708H261.952V602.698ZM270.003 602.698H274.028V601.708H270.003V602.698ZM278.053 602.698H282.079V601.708H278.053V602.698ZM286.104 602.698H290.129V601.708H286.104V602.698ZM294.155 602.698H298.18V601.708H294.155V602.698ZM302.206 602.698H306.231V601.708H302.206V602.698ZM310.256 602.698H314.282V601.708H310.256V602.698ZM318.307 602.698H322.332V601.708H318.307V602.698ZM326.358 602.698H330.383V601.708H326.358V602.698ZM334.409 602.698H338.434V601.708H334.409V602.698ZM342.459 602.698H346.485V601.708H342.459V602.698ZM350.51 602.698H354.535V601.708H350.51V602.698ZM358.561 602.698H362.586V601.708H358.561V602.698ZM366.612 602.698H368.624V601.708H366.612V602.698Z" fill="#80858E"/>
<path d="M109 587V617.418" stroke="#80858E" stroke-width="0.99" stroke-linecap="round" stroke-linejoin="round"/>
<path d="M116.26 564.853C116.067 565.047 116.067 565.36 116.26 565.553L119.41 568.703C119.603 568.897 119.917 568.897 120.11 568.703C120.303 568.51 120.303 568.197 120.11 568.003L117.31 565.203L120.11 562.403C120.303 562.21 120.303 561.896 120.11 561.703C119.917 561.51 119.603 561.51 119.41 561.703L116.26 564.853ZM362.739 565.553C362.933 565.36 362.933 565.047 362.739 564.853L359.589 561.703C359.396 561.51 359.083 561.51 358.889 561.703C358.696 561.896 358.696 562.21 358.889 562.403L361.689 565.203L358.889 568.003C358.696 568.197 358.696 568.51 358.889 568.703C359.083 568.897 359.396 568.897 359.589 568.703L362.739 565.553ZM116.61 565.698H118.592V564.708H116.61V565.698ZM122.556 565.698H126.52V564.708H122.556V565.698ZM130.485 565.698H134.449V564.708H130.485V565.698ZM138.413 565.698H142.377V564.708H138.413V565.698ZM146.341 565.698H150.305V564.708H146.341V565.698ZM154.27 565.698H158.234V564.708H154.27V565.698ZM162.198 565.698H166.162V564.708H162.198V565.698ZM170.126 565.698H174.091V564.708H170.126V565.698ZM178.055 565.698H182.019V564.708H178.055V565.698ZM185.983 565.698H189.947V564.708H185.983V565.698ZM193.912 565.698H197.876V564.708H193.912V565.698ZM201.84 565.698H205.804V564.708H201.84V565.698ZM209.768 565.698H213.732V564.708H209.768V565.698ZM217.697 565.698H221.661V564.708H217.697V565.698ZM225.625 565.698H229.589V564.708H225.625V565.698ZM233.553 565.698H237.518V564.708H233.553V565.698ZM241.482 565.698H245.446V564.708H241.482V565.698ZM249.41 565.698H253.374V564.708H249.41V565.698ZM257.339 565.698H261.303V564.708H257.339V565.698ZM265.267 565.698H269.231V564.708H265.267V565.698ZM273.195 565.698H277.159V564.708H273.195V565.698ZM281.124 565.698H285.088V564.708H281.124V565.698ZM289.052 565.698H293.016V564.708H289.052V565.698ZM296.98 565.698H300.945V564.708H296.98V565.698ZM304.909 565.698H308.873V564.708H304.909V565.698ZM312.837 565.698H316.801V564.708H312.837V565.698ZM320.766 565.698H324.73V564.708H320.766V565.698ZM328.694 565.698H332.658V564.708H328.694V565.698ZM336.622 565.698H340.586V564.708H336.622V565.698ZM344.551 565.698H348.515V564.708H344.551V565.698ZM352.479 565.698H356.443V564.708H352.479V565.698ZM360.407 565.698H362.389V564.708H360.407V565.698Z" fill="#80858E"/>
<path d="M115 550V580" stroke="#80858E" stroke-width="0.99" stroke-linecap="round" stroke-linejoin="round"/>
<path d="M364 550V580" stroke="#80858E" stroke-width="0.99" stroke-linecap="round" stroke-linejoin="round"/>
<path d="M20 40H103" stroke="#80858E" stroke-width="0.99" stroke-linecap="round" stroke-linejoin="round"/>
<path d="M52 193L103 193" stroke="#80858E" stroke-width="0.99" stroke-linecap="round" stroke-linejoin="round"/>
<path d="M215.975 612.418V626H214.333V614.561L211.494 615.823V614.273L215.724 612.418H215.975ZM225.363 612.418V626H223.721V614.561L220.882 615.823V614.273L225.113 612.418H225.363ZM231.347 624.562H231.477C232.312 624.562 232.983 624.423 233.49 624.145C233.997 623.866 234.378 623.492 234.631 623.022C234.891 622.552 235.064 622.023 235.151 621.436C235.244 620.842 235.29 620.233 235.29 619.608V617.539C235.29 616.927 235.231 616.382 235.114 615.906C235.002 615.43 234.851 615.031 234.659 614.709C234.474 614.388 234.26 614.144 234.019 613.977C233.784 613.81 233.543 613.726 233.295 613.726C232.98 613.726 232.702 613.806 232.46 613.967C232.219 614.122 232.015 614.341 231.848 614.626C231.687 614.91 231.564 615.244 231.477 615.628C231.39 616.011 231.347 616.429 231.347 616.88C231.347 617.282 231.384 617.672 231.458 618.049C231.533 618.427 231.647 618.767 231.802 619.07C231.963 619.373 232.16 619.614 232.396 619.793C232.637 619.967 232.921 620.053 233.249 620.053C233.521 620.053 233.784 619.979 234.038 619.831C234.297 619.676 234.532 619.469 234.743 619.209C234.953 618.943 235.126 618.643 235.262 618.309C235.398 617.975 235.479 617.626 235.503 617.261H236.273C236.273 617.774 236.19 618.281 236.023 618.782C235.862 619.277 235.63 619.729 235.327 620.137C235.03 620.545 234.681 620.873 234.279 621.12C233.883 621.361 233.447 621.482 232.971 621.482C232.396 621.482 231.904 621.352 231.496 621.092C231.087 620.833 230.753 620.486 230.494 620.053C230.24 619.62 230.051 619.138 229.928 618.606C229.804 618.068 229.742 617.524 229.742 616.973C229.742 616.33 229.816 615.727 229.965 615.164C230.113 614.601 230.333 614.106 230.624 613.68C230.92 613.247 231.292 612.91 231.737 612.668C232.182 612.427 232.702 612.307 233.295 612.307C233.957 612.307 234.52 612.461 234.984 612.771C235.448 613.08 235.822 613.494 236.106 614.014C236.391 614.533 236.598 615.118 236.728 615.767C236.858 616.417 236.923 617.084 236.923 617.771V618.393C236.923 619.091 236.889 619.803 236.821 620.526C236.759 621.244 236.626 621.93 236.422 622.586C236.224 623.242 235.927 623.829 235.531 624.349C235.135 624.862 234.607 625.27 233.945 625.573C233.289 625.87 232.467 626.019 231.477 626.019H231.356L231.347 624.562ZM248.687 623.718L251.368 615.962H252.926L249.252 626H248.121L244.456 615.962H246.015L248.687 623.718ZM245.542 615.962V626H243.909V615.962H245.542ZM251.776 626V615.962H253.418V626H251.776ZM260.97 623.718L263.651 615.962H265.209L261.536 626H260.404L256.739 615.962H258.298L260.97 623.718ZM257.825 615.962V626H256.192V615.962H257.825ZM264.059 626V615.962H265.701V626H264.059Z" fill="#80858E"/>
<path d="M215.975 575.418V589H214.333V577.561L211.494 578.823V577.273L215.724 575.418H215.975ZM225.363 575.418V589H223.721V577.561L220.882 578.823V577.273L225.113 575.418H225.363ZM237.591 584.454V585.864H229.334V584.853L234.353 575.492H235.67L234.353 578.201L231.162 584.454H237.591ZM236.088 575.492V589H234.446V575.492H236.088ZM248.687 586.718L251.368 578.962H252.926L249.252 589H248.121L244.456 578.962H246.015L248.687 586.718ZM245.542 578.962V589H243.909V578.962H245.542ZM251.776 589V578.962H253.418V589H251.776ZM260.97 586.718L263.651 578.962H265.209L261.536 589H260.404L256.739 578.962H258.298L260.97 586.718ZM257.825 578.962V589H256.192V578.962H257.825ZM264.059 589V578.962H265.701V589H264.059Z" fill="#80858E"/>
<path d="M51.0649 345.588L43.5443 342.988L43.5443 341.477L53.2778 345.039L53.2778 346.137L43.5443 349.69L43.5443 348.179L51.0649 345.588ZM43.5443 348.638L53.2778 348.638L53.2778 350.221L43.5443 350.221L43.5443 348.638ZM53.2778 342.592L43.5443 342.592L43.5443 341L53.2778 341L53.2778 342.592Z" fill="#80858E"/>
<path d="M51.0649 357.498L43.5443 354.899L43.5443 353.387L53.2778 356.95L53.2778 358.047L43.5443 361.601L43.5443 360.089L51.0649 357.498ZM43.5443 360.548L53.2778 360.548L53.2778 362.131L43.5443 362.131L43.5443 360.548ZM53.2778 354.503L43.5443 354.503L43.5443 352.911L53.2778 352.911L53.2778 354.503Z" fill="#80858E"/>
<path d="M45.6854 368.752L47.6825 368.752C48.756 368.752 49.6616 368.836 50.3992 369.004C51.1369 369.166 51.7306 369.4 52.1804 369.706C52.6302 370.012 52.9571 370.381 53.161 370.812C53.3589 371.238 53.4578 371.718 53.4578 372.252C53.4578 372.672 53.3949 373.064 53.2689 373.43C53.143 373.79 52.9421 374.114 52.6662 374.402C52.3843 374.69 52.0185 374.936 51.5687 375.139C51.1189 375.343 50.5732 375.499 49.9314 375.607C49.2897 375.715 48.5401 375.769 47.6825 375.769L45.6854 375.769C44.6119 375.769 43.7123 375.685 42.9866 375.517C42.261 375.349 41.6792 375.112 41.2414 374.807C40.7976 374.495 40.4798 374.126 40.2879 373.7C40.096 373.268 40 372.789 40 372.261C40 371.835 40.063 371.442 40.1889 371.082C40.3089 370.716 40.5038 370.393 40.7736 370.111C41.0375 369.823 41.3914 369.577 41.8352 369.373C42.273 369.169 42.8097 369.016 43.4454 368.914C44.0811 368.806 44.8278 368.752 45.6854 368.752ZM47.9524 370.336L45.4065 370.336C44.8188 370.336 44.303 370.363 43.8592 370.417C43.4094 370.471 43.0256 370.552 42.7078 370.66C42.3899 370.761 42.132 370.89 41.9341 371.046C41.7362 371.202 41.5923 371.382 41.5023 371.586C41.4064 371.79 41.3584 372.015 41.3584 372.261C41.3584 372.567 41.4333 372.84 41.5833 373.079C41.7272 373.313 41.9581 373.514 42.276 373.682C42.5938 373.844 43.0106 373.967 43.5264 374.051C44.0421 374.135 44.6689 374.177 45.4065 374.177L47.9524 374.177C48.5401 374.177 49.0588 374.15 49.5086 374.096C49.9584 374.036 50.3483 373.955 50.6781 373.853C51.002 373.745 51.2688 373.613 51.4787 373.457C51.6886 373.301 51.8446 373.121 51.9465 372.917C52.0425 372.714 52.0905 372.492 52.0905 372.252C52.0905 371.934 52.0125 371.658 51.8566 371.424C51.7006 371.184 51.4577 370.983 51.1279 370.821C50.7921 370.66 50.3632 370.54 49.8415 370.462C49.3137 370.378 48.684 370.336 47.9524 370.336Z" fill="#80858E"/>
<path d="M40.1619 379.431L40.1619 379.314L41.5742 379.314L41.5742 379.431C41.5742 380.186 41.7182 380.807 42.006 381.293C42.2879 381.772 42.6687 382.147 43.1485 382.417C43.6223 382.681 44.156 382.864 44.7498 382.966C45.3435 383.068 45.9462 383.119 46.5579 383.119L48.483 383.119C49.0648 383.119 49.5805 383.065 50.0303 382.957C50.4741 382.843 50.849 382.696 51.1548 382.516C51.4607 382.33 51.6916 382.123 51.8475 381.895C52.0034 381.661 52.0814 381.425 52.0814 381.185C52.0814 380.879 52.0094 380.609 51.8655 380.375C51.7156 380.135 51.5087 379.937 51.2448 379.781C50.9749 379.619 50.6571 379.496 50.2912 379.413C49.9254 379.329 49.5236 379.287 49.0858 379.287C48.696 379.287 48.3211 379.326 47.9613 379.404C47.5955 379.475 47.2716 379.586 46.9897 379.736C46.7019 379.886 46.477 380.078 46.315 380.312C46.1471 380.54 46.0632 380.813 46.0632 381.131C46.0632 381.491 46.1771 381.826 46.405 382.138C46.6269 382.444 46.9208 382.696 47.2866 382.894C47.6464 383.092 48.0393 383.209 48.4651 383.245L48.4561 384.063C47.7844 383.979 47.2116 383.838 46.7378 383.641C46.2581 383.443 45.8682 383.203 45.5684 382.921C45.2625 382.633 45.0406 382.315 44.9027 381.967C44.7588 381.62 44.6868 381.254 44.6868 380.87C44.6868 380.312 44.8097 379.835 45.0556 379.44C45.3015 379.038 45.6314 378.711 46.0452 378.459C46.453 378.201 46.9148 378.012 47.4305 377.892C47.9403 377.772 48.4651 377.712 49.0048 377.712C49.6225 377.712 50.2013 377.787 50.741 377.937C51.2808 378.081 51.7545 378.297 52.1624 378.585C52.5702 378.873 52.888 379.236 53.1159 379.673C53.3438 380.105 53.4578 380.609 53.4578 381.185C53.4578 381.796 53.3138 382.324 53.026 382.768C52.7321 383.212 52.3423 383.581 51.8565 383.874C51.3707 384.162 50.831 384.375 50.2372 384.513C49.6435 384.651 49.0408 384.72 48.4291 384.72L47.6464 384.72C46.7229 384.72 45.8173 384.654 44.9297 384.522C44.0421 384.39 43.2385 384.141 42.5188 383.776C41.7991 383.404 41.2264 382.87 40.8006 382.174C40.3748 381.473 40.1619 380.558 40.1619 379.431Z" fill="#80858E"/>
<path d="M40.1075 389.218L53.2775 389.218L53.2775 390.81L42.1856 390.81L43.409 393.563L41.9067 393.563L40.1075 389.461L40.1075 389.218Z" fill="#80858E"/>
<path d="M18.5898 311.363L20 311.363L20 318.915L18.7661 318.915L13.8398 315.194C13.2337 314.737 12.7204 314.387 12.2998 314.146C11.873 313.905 11.4927 313.738 11.1587 313.645C10.8185 313.552 10.4722 313.506 10.1196 313.506C9.67432 313.506 9.2723 313.577 8.91357 313.719C8.54867 313.861 8.25798 314.069 8.0415 314.341C7.82503 314.613 7.7168 314.941 7.7168 315.324C7.7168 315.825 7.83431 316.236 8.06934 316.558C8.29818 316.874 8.61979 317.105 9.03418 317.254C9.44857 317.402 9.9248 317.477 10.4629 317.477L10.4629 319.119C9.70215 319.119 9.00635 318.979 8.37549 318.701C7.74463 318.417 7.24365 317.993 6.87256 317.43C6.49528 316.867 6.30664 316.165 6.30664 315.324C6.30664 314.601 6.45817 313.982 6.76123 313.469C7.05811 312.949 7.47868 312.553 8.02295 312.281C8.56103 312.003 9.19189 311.864 9.91553 311.864C10.3114 311.864 10.7134 311.919 11.1216 312.031C11.5236 312.136 11.9256 312.284 12.3276 312.476C12.7297 312.662 13.1255 312.881 13.5151 313.135C13.9048 313.388 14.2882 313.66 14.6655 313.951L18.5898 316.948L18.5898 311.363ZM12.4019 307.42L12.4019 306.362C12.4019 305.892 12.3029 305.503 12.105 305.193C11.9009 304.884 11.6257 304.655 11.2793 304.507C10.9268 304.352 10.5309 304.275 10.0918 304.275C9.57226 304.275 9.13623 304.343 8.78369 304.479C8.43115 304.615 8.1652 304.819 7.98584 305.091C7.80648 305.357 7.7168 305.694 7.7168 306.103C7.7168 306.486 7.81266 306.82 8.00439 307.104C8.18994 307.389 8.45589 307.609 8.80225 307.763C9.1486 307.918 9.5568 307.995 10.0269 307.995L10.0269 309.628C9.34033 309.628 8.71566 309.486 8.15283 309.201C7.59001 308.91 7.1416 308.502 6.80762 307.977C6.47363 307.445 6.30664 306.82 6.30664 306.103C6.30664 305.416 6.45199 304.813 6.74268 304.293C7.02718 303.774 7.45394 303.369 8.02295 303.078C8.58577 302.781 9.28776 302.633 10.1289 302.633C10.4691 302.633 10.834 302.698 11.2236 302.828C11.6071 302.951 11.9658 303.152 12.2998 303.431C12.6338 303.703 12.909 304.062 13.1255 304.507C13.3358 304.946 13.4409 305.484 13.4409 306.121L13.4409 307.42L12.4019 307.42ZM13.812 307.42L12.7822 307.42L12.7822 306.121C12.7822 305.367 12.8843 304.751 13.0884 304.275C13.2925 303.799 13.5646 303.431 13.9048 303.171C14.245 302.911 14.6191 302.732 15.0273 302.633C15.4294 302.528 15.8314 302.475 16.2334 302.475C16.8643 302.475 17.424 302.568 17.9126 302.753C18.4012 302.933 18.8156 303.189 19.1558 303.523C19.4959 303.851 19.7526 304.235 19.9258 304.674C20.099 305.113 20.1855 305.592 20.1855 306.112C20.1855 306.619 20.1021 307.089 19.9351 307.522C19.7681 307.955 19.5269 308.335 19.2114 308.663C18.8898 308.991 18.4971 309.248 18.0332 309.433C17.5632 309.612 17.0282 309.702 16.4282 309.702L16.4282 308.06C16.8983 308.06 17.3096 307.983 17.6621 307.828C18.0146 307.674 18.2899 307.451 18.4878 307.16C18.6795 306.869 18.7754 306.52 18.7754 306.112C18.7754 305.704 18.6857 305.351 18.5063 305.054C18.3208 304.757 18.0425 304.528 17.6714 304.368C17.3003 304.201 16.8333 304.117 16.2705 304.117C15.7077 304.117 15.2469 304.21 14.8882 304.396C14.5233 304.575 14.2542 304.832 14.0811 305.166C13.9017 305.5 13.812 305.898 13.812 306.362L13.812 307.42ZM12.1699 292.919L14.2295 292.919C15.3366 292.919 16.2705 293.006 17.0312 293.179C17.792 293.346 18.4043 293.587 18.8682 293.903C19.332 294.218 19.6691 294.599 19.8794 295.044C20.0835 295.483 20.1855 295.978 20.1855 296.528C20.1855 296.961 20.1206 297.366 19.9907 297.744C19.8608 298.115 19.6536 298.449 19.3691 298.746C19.0784 299.042 18.7012 299.296 18.2373 299.506C17.7734 299.717 17.2106 299.877 16.5488 299.989C15.887 300.1 15.1139 300.156 14.2295 300.156L12.1699 300.156C11.0628 300.156 10.1351 300.069 9.38672 299.896C8.63835 299.723 8.03841 299.479 7.58691 299.163C7.12923 298.841 6.80143 298.461 6.60351 298.022C6.4056 297.577 6.30664 297.082 6.30664 296.538C6.30664 296.098 6.37158 295.693 6.50146 295.322C6.62516 294.945 6.82617 294.611 7.10449 294.32C7.37663 294.023 7.74154 293.77 8.19922 293.56C8.65071 293.349 9.20426 293.192 9.85986 293.086C10.5155 292.975 11.2855 292.919 12.1699 292.919ZM14.5078 294.552L11.8823 294.552C11.2762 294.552 10.7443 294.58 10.2866 294.636C9.82275 294.691 9.42692 294.775 9.09912 294.886C8.77132 294.991 8.50537 295.124 8.30127 295.285C8.09717 295.446 7.94873 295.632 7.85596 295.842C7.757 296.052 7.70752 296.284 7.70752 296.538C7.70752 296.853 7.78483 297.134 7.93945 297.382C8.08789 297.623 8.32601 297.83 8.65381 298.003C8.98161 298.17 9.41146 298.297 9.94336 298.384C10.4753 298.47 11.1216 298.514 11.8823 298.514L14.5078 298.514C15.1139 298.514 15.6489 298.486 16.1128 298.43C16.5767 298.368 16.9787 298.285 17.3188 298.18C17.6528 298.068 17.9281 297.932 18.1445 297.771C18.361 297.611 18.5218 297.425 18.627 297.215C18.7259 297.005 18.7754 296.776 18.7754 296.528C18.7754 296.201 18.695 295.916 18.5342 295.675C18.3734 295.427 18.1229 295.22 17.7827 295.053C17.4364 294.886 16.9941 294.763 16.4561 294.682C15.9118 294.596 15.2624 294.552 14.5078 294.552ZM17.7178 281.313L9.96191 278.632L9.96191 277.074L20 280.748L20 281.879L9.96191 285.544L9.96191 283.985L17.7178 281.313ZM9.96191 284.458L20 284.458L20 286.091L9.96191 286.091L9.96191 284.458ZM20 278.224L9.96191 278.224L9.96191 276.582L20 276.582L20 278.224ZM17.7178 269.03L9.96191 266.349L9.96191 264.791L20 268.464L20 269.596L9.96191 273.261L9.96191 271.702L17.7178 269.03ZM9.96191 272.175L20 272.175L20 273.808L9.96191 273.808L9.96191 272.175ZM20 265.941L9.96191 265.941L9.96191 264.299L20 264.299L20 265.941Z" fill="#80858E"/>
<path d="M322.066 41.5343H156.254C129.206 41.5343 107.675 72.4335 109.064 109.271L127.215 531.07C127.215 543.69 351.106 543.527 351.106 531.07L369.257 109.271C370.646 72.4335 349.115 41.5266 322.066 41.5266V41.5343Z" fill="#C3CAD6"/>
<path d="M256.075 30.6449H226.092V41.818H256.075V30.6449Z" fill="#C3CAD6"/>
<path d="M228.068 0H254.104C255.193 0 256.075 0.887062 256.075 1.97287V30.64H226.092V1.97287C226.092 0.882215 226.978 0 228.063 0H228.068Z" fill="#C3CAD6"/>
<path d="M325.878 194.122H152.45C130.71 194.122 113.408 215.499 114.527 240.985L127.222 531.078C127.222 544.307 351.114 544.307 351.114 531.078L363.808 240.985C364.92 215.499 347.618 194.122 325.886 194.122H325.878Z" stroke="#80858E" stroke-width="1.42" stroke-linecap="round" stroke-linejoin="round"/>
<path d="M256.077 183.278H226.092V194.453H256.077V183.278Z" stroke="#80858E" stroke-width="1.42" stroke-linecap="round" stroke-linejoin="round"/>
<path d="M228.765 152.635H253.403C254.876 152.635 256.077 153.832 256.077 155.311V183.278H226.092V155.311C226.092 153.837 227.287 152.635 228.765 152.635Z" stroke="#80858E" stroke-width="1.42" stroke-linecap="round" stroke-linejoin="round"/>
<path d="M229.917 160.455V183.278" stroke="#80858E" stroke-width="1.42" stroke-linecap="round" stroke-linejoin="round"/>
<path d="M233.107 160.455V183.278" stroke="#80858E" stroke-width="1.42" stroke-linecap="round" stroke-linejoin="round"/>
<path d="M236.297 160.455V183.278" stroke="#80858E" stroke-width="1.42" stroke-linecap="round" stroke-linejoin="round"/>
<path d="M239.487 160.455V183.278" stroke="#80858E" stroke-width="1.42" stroke-linecap="round" stroke-linejoin="round"/>
<path d="M242.676 160.455V183.278" stroke="#80858E" stroke-width="1.42" stroke-linecap="round" stroke-linejoin="round"/>
<path d="M245.866 160.455V183.278" stroke="#80858E" stroke-width="1.42" stroke-linecap="round" stroke-linejoin="round"/>
<path d="M249.061 160.455V183.278" stroke="#80858E" stroke-width="1.42" stroke-linecap="round" stroke-linejoin="round"/>
<path d="M252.251 160.455V183.278" stroke="#80858E" stroke-width="1.42" stroke-linecap="round" stroke-linejoin="round"/>
<path d="M138.327 315.919L140.333 385.162" stroke="#80858E" stroke-width="1.42" stroke-linecap="round" stroke-linejoin="round"/>
<path d="M339.792 356.109L342.902 248.545C343.396 231.478 331.836 217.322 317.405 217.322H161.872C147.441 217.322 135.881 231.478 136.375 248.545L137.98 303.949" stroke="#80858E" stroke-width="1.42" stroke-linecap="round" stroke-linejoin="round"/>
<path d="M140.905 404.948L141.808 436.149C142.039 444.188 143.583 452.096 146.392 459.418C153.985 479.235 206.694 514.675 240.194 514.675C273.695 514.675 325.307 479.235 332.901 459.418C335.71 452.089 337.254 444.188 337.485 436.149L339.484 367.091" stroke="#80858E" stroke-width="1.42" stroke-linecap="round" stroke-linejoin="round"/>
<path d="M370 587V617.418" stroke="#80858E" stroke-width="0.99" stroke-linecap="round" stroke-linejoin="round"/>
<path d="M201.209 352.086V354H193.025V352.35L196.902 347.32C197.326 346.754 197.651 346.266 197.879 345.855C198.113 345.439 198.276 345.064 198.367 344.732C198.458 344.4 198.504 344.075 198.504 343.756C198.504 343.313 198.442 342.923 198.318 342.584C198.201 342.245 198.025 341.982 197.791 341.793C197.557 341.598 197.27 341.5 196.932 341.5C196.508 341.5 196.16 341.614 195.887 341.842C195.613 342.063 195.411 342.372 195.281 342.77C195.151 343.16 195.086 343.609 195.086 344.117H192.811C192.811 343.29 192.97 342.532 193.289 341.842C193.615 341.152 194.087 340.605 194.705 340.201C195.324 339.791 196.076 339.586 196.961 339.586C197.781 339.586 198.475 339.745 199.041 340.064C199.614 340.383 200.047 340.836 200.34 341.422C200.639 342.008 200.789 342.704 200.789 343.512C200.789 343.954 200.727 344.397 200.604 344.84C200.486 345.276 200.32 345.709 200.105 346.139C199.891 346.568 199.63 347.001 199.324 347.438C199.025 347.874 198.693 348.316 198.328 348.766L195.877 352.086H201.209ZM210.975 345.699V348.023C210.975 349.137 210.877 350.087 210.682 350.875C210.493 351.656 210.223 352.291 209.871 352.779C209.526 353.268 209.109 353.626 208.621 353.854C208.139 354.081 207.602 354.195 207.01 354.195C206.541 354.195 206.102 354.124 205.691 353.98C205.281 353.837 204.91 353.613 204.578 353.307C204.253 353.001 203.973 352.607 203.738 352.125C203.51 351.637 203.331 351.054 203.201 350.377C203.077 349.7 203.016 348.915 203.016 348.023V345.699C203.016 344.579 203.113 343.635 203.309 342.867C203.504 342.092 203.777 341.464 204.129 340.982C204.48 340.494 204.897 340.139 205.379 339.918C205.867 339.697 206.408 339.586 207 339.586C207.469 339.586 207.908 339.658 208.318 339.801C208.729 339.938 209.096 340.156 209.422 340.455C209.747 340.755 210.027 341.145 210.262 341.627C210.496 342.102 210.672 342.678 210.789 343.355C210.913 344.026 210.975 344.807 210.975 345.699ZM208.709 348.365V345.338C208.709 344.778 208.683 344.283 208.631 343.854C208.579 343.424 208.507 343.059 208.416 342.76C208.325 342.46 208.208 342.219 208.064 342.037C207.928 341.848 207.768 341.712 207.586 341.627C207.41 341.536 207.215 341.49 207 341.49C206.733 341.49 206.492 341.559 206.277 341.695C206.069 341.832 205.89 342.053 205.74 342.359C205.597 342.659 205.486 343.056 205.408 343.551C205.33 344.039 205.291 344.635 205.291 345.338V348.365C205.291 348.932 205.317 349.43 205.369 349.859C205.421 350.289 205.496 350.66 205.594 350.973C205.691 351.279 205.809 351.529 205.945 351.725C206.082 351.913 206.238 352.053 206.414 352.145C206.596 352.236 206.795 352.281 207.01 352.281C207.283 352.281 207.524 352.21 207.732 352.066C207.947 351.923 208.126 351.699 208.27 351.393C208.413 351.08 208.52 350.673 208.592 350.172C208.67 349.671 208.709 349.068 208.709 348.365ZM220.975 345.699V348.023C220.975 349.137 220.877 350.087 220.682 350.875C220.493 351.656 220.223 352.291 219.871 352.779C219.526 353.268 219.109 353.626 218.621 353.854C218.139 354.081 217.602 354.195 217.01 354.195C216.541 354.195 216.102 354.124 215.691 353.98C215.281 353.837 214.91 353.613 214.578 353.307C214.253 353.001 213.973 352.607 213.738 352.125C213.51 351.637 213.331 351.054 213.201 350.377C213.077 349.7 213.016 348.915 213.016 348.023V345.699C213.016 344.579 213.113 343.635 213.309 342.867C213.504 342.092 213.777 341.464 214.129 340.982C214.48 340.494 214.897 340.139 215.379 339.918C215.867 339.697 216.408 339.586 217 339.586C217.469 339.586 217.908 339.658 218.318 339.801C218.729 339.938 219.096 340.156 219.422 340.455C219.747 340.755 220.027 341.145 220.262 341.627C220.496 342.102 220.672 342.678 220.789 343.355C220.913 344.026 220.975 344.807 220.975 345.699ZM218.709 348.365V345.338C218.709 344.778 218.683 344.283 218.631 343.854C218.579 343.424 218.507 343.059 218.416 342.76C218.325 342.46 218.208 342.219 218.064 342.037C217.928 341.848 217.768 341.712 217.586 341.627C217.41 341.536 217.215 341.49 217 341.49C216.733 341.49 216.492 341.559 216.277 341.695C216.069 341.832 215.89 342.053 215.74 342.359C215.597 342.659 215.486 343.056 215.408 343.551C215.33 344.039 215.291 344.635 215.291 345.338V348.365C215.291 348.932 215.317 349.43 215.369 349.859C215.421 350.289 215.496 350.66 215.594 350.973C215.691 351.279 215.809 351.529 215.945 351.725C216.082 351.913 216.238 352.053 216.414 352.145C216.596 352.236 216.795 352.281 217.01 352.281C217.283 352.281 217.524 352.21 217.732 352.066C217.947 351.923 218.126 351.699 218.27 351.393C218.413 351.08 218.52 350.673 218.592 350.172C218.67 349.671 218.709 349.068 218.709 348.365ZM231.922 346.002V347.926H223.514V346.002H231.922ZM236.521 347.408L234.705 346.939L235.369 339.781H241.922V341.822H237.254L236.951 345.25C237.133 345.12 237.378 344.993 237.684 344.869C237.99 344.739 238.335 344.674 238.719 344.674C239.298 344.674 239.809 344.785 240.252 345.006C240.701 345.227 241.082 345.546 241.395 345.963C241.707 346.373 241.941 346.871 242.098 347.457C242.26 348.043 242.342 348.707 242.342 349.449C242.342 350.107 242.26 350.722 242.098 351.295C241.935 351.861 241.684 352.363 241.346 352.799C241.007 353.235 240.584 353.577 240.076 353.824C239.575 354.072 238.989 354.195 238.318 354.195C237.811 354.195 237.326 354.111 236.863 353.941C236.401 353.766 235.984 353.505 235.613 353.16C235.249 352.815 234.952 352.392 234.725 351.891C234.503 351.383 234.38 350.8 234.354 350.143H236.57C236.616 350.598 236.714 350.986 236.863 351.305C237.013 351.624 237.212 351.868 237.459 352.037C237.706 352.2 237.99 352.281 238.309 352.281C238.608 352.281 238.868 352.213 239.09 352.076C239.311 351.933 239.493 351.731 239.637 351.471C239.78 351.21 239.887 350.904 239.959 350.553C240.031 350.195 240.066 349.801 240.066 349.371C240.066 348.961 240.024 348.587 239.939 348.248C239.861 347.903 239.741 347.607 239.578 347.359C239.415 347.105 239.21 346.91 238.963 346.773C238.722 346.637 238.439 346.568 238.113 346.568C237.677 346.568 237.352 346.653 237.137 346.822C236.922 346.985 236.717 347.18 236.521 347.408ZM252.166 345.699V348.023C252.166 349.137 252.068 350.087 251.873 350.875C251.684 351.656 251.414 352.291 251.062 352.779C250.717 353.268 250.301 353.626 249.812 353.854C249.331 354.081 248.794 354.195 248.201 354.195C247.732 354.195 247.293 354.124 246.883 353.98C246.473 353.837 246.102 353.613 245.77 353.307C245.444 353.001 245.164 352.607 244.93 352.125C244.702 351.637 244.523 351.054 244.393 350.377C244.269 349.7 244.207 348.915 244.207 348.023V345.699C244.207 344.579 244.305 343.635 244.5 342.867C244.695 342.092 244.969 341.464 245.32 340.982C245.672 340.494 246.089 340.139 246.57 339.918C247.059 339.697 247.599 339.586 248.191 339.586C248.66 339.586 249.1 339.658 249.51 339.801C249.92 339.938 250.288 340.156 250.613 340.455C250.939 340.755 251.219 341.145 251.453 341.627C251.688 342.102 251.863 342.678 251.98 343.355C252.104 344.026 252.166 344.807 252.166 345.699ZM249.9 348.365V345.338C249.9 344.778 249.874 344.283 249.822 343.854C249.77 343.424 249.699 343.059 249.607 342.76C249.516 342.46 249.399 342.219 249.256 342.037C249.119 341.848 248.96 341.712 248.777 341.627C248.602 341.536 248.406 341.49 248.191 341.49C247.924 341.49 247.684 341.559 247.469 341.695C247.26 341.832 247.081 342.053 246.932 342.359C246.788 342.659 246.678 343.056 246.6 343.551C246.521 344.039 246.482 344.635 246.482 345.338V348.365C246.482 348.932 246.508 349.43 246.561 349.859C246.613 350.289 246.688 350.66 246.785 350.973C246.883 351.279 247 351.529 247.137 351.725C247.273 351.913 247.43 352.053 247.605 352.145C247.788 352.236 247.986 352.281 248.201 352.281C248.475 352.281 248.715 352.21 248.924 352.066C249.139 351.923 249.318 351.699 249.461 351.393C249.604 351.08 249.712 350.673 249.783 350.172C249.861 349.671 249.9 349.068 249.9 348.365ZM262.166 345.699V348.023C262.166 349.137 262.068 350.087 261.873 350.875C261.684 351.656 261.414 352.291 261.062 352.779C260.717 353.268 260.301 353.626 259.812 353.854C259.331 354.081 258.794 354.195 258.201 354.195C257.732 354.195 257.293 354.124 256.883 353.98C256.473 353.837 256.102 353.613 255.77 353.307C255.444 353.001 255.164 352.607 254.93 352.125C254.702 351.637 254.523 351.054 254.393 350.377C254.269 349.7 254.207 348.915 254.207 348.023V345.699C254.207 344.579 254.305 343.635 254.5 342.867C254.695 342.092 254.969 341.464 255.32 340.982C255.672 340.494 256.089 340.139 256.57 339.918C257.059 339.697 257.599 339.586 258.191 339.586C258.66 339.586 259.1 339.658 259.51 339.801C259.92 339.938 260.288 340.156 260.613 340.455C260.939 340.755 261.219 341.145 261.453 341.627C261.688 342.102 261.863 342.678 261.98 343.355C262.104 344.026 262.166 344.807 262.166 345.699ZM259.9 348.365V345.338C259.9 344.778 259.874 344.283 259.822 343.854C259.77 343.424 259.699 343.059 259.607 342.76C259.516 342.46 259.399 342.219 259.256 342.037C259.119 341.848 258.96 341.712 258.777 341.627C258.602 341.536 258.406 341.49 258.191 341.49C257.924 341.49 257.684 341.559 257.469 341.695C257.26 341.832 257.081 342.053 256.932 342.359C256.788 342.659 256.678 343.056 256.6 343.551C256.521 344.039 256.482 344.635 256.482 345.338V348.365C256.482 348.932 256.508 349.43 256.561 349.859C256.613 350.289 256.688 350.66 256.785 350.973C256.883 351.279 257 351.529 257.137 351.725C257.273 351.913 257.43 352.053 257.605 352.145C257.788 352.236 257.986 352.281 258.201 352.281C258.475 352.281 258.715 352.21 258.924 352.066C259.139 351.923 259.318 351.699 259.461 351.393C259.604 351.08 259.712 350.673 259.783 350.172C259.861 349.671 259.9 349.068 259.9 348.365ZM271.229 345.582V354H268.953V343.434H271.092L271.229 345.582ZM270.857 348.336H270.086C270.073 347.6 270.138 346.923 270.281 346.305C270.431 345.686 270.652 345.146 270.945 344.684C271.245 344.221 271.619 343.867 272.068 343.619C272.524 343.365 273.048 343.238 273.641 343.238C274.038 343.238 274.402 343.31 274.734 343.453C275.073 343.59 275.366 343.808 275.613 344.107C275.867 344.407 276.062 344.791 276.199 345.26C276.336 345.729 276.404 346.295 276.404 346.959V354H274.129V347.174C274.129 346.666 274.07 346.269 273.953 345.982C273.842 345.689 273.68 345.481 273.465 345.357C273.25 345.234 272.99 345.172 272.684 345.172C272.352 345.172 272.068 345.257 271.834 345.426C271.6 345.589 271.411 345.816 271.268 346.109C271.124 346.396 271.02 346.731 270.955 347.115C270.89 347.493 270.857 347.9 270.857 348.336ZM276.258 347.73L275.193 347.975C275.18 347.33 275.245 346.721 275.389 346.148C275.532 345.576 275.747 345.074 276.033 344.645C276.326 344.208 276.691 343.867 277.127 343.619C277.57 343.365 278.081 343.238 278.66 343.238C279.116 343.238 279.523 343.313 279.881 343.463C280.239 343.606 280.545 343.834 280.799 344.146C281.053 344.459 281.245 344.866 281.375 345.367C281.512 345.862 281.58 346.464 281.58 347.174V354H279.295V347.164C279.295 346.637 279.236 346.23 279.119 345.943C279.008 345.657 278.846 345.458 278.631 345.348C278.416 345.23 278.159 345.172 277.859 345.172C277.599 345.172 277.368 345.24 277.166 345.377C276.971 345.507 276.805 345.689 276.668 345.924C276.531 346.158 276.427 346.432 276.355 346.744C276.29 347.05 276.258 347.379 276.258 347.73ZM286.297 339V354H284.021V339H286.297Z" fill="#353E48"/>
</svg>
