<svg width="261" height="542" viewBox="0 0 261 542" fill="none" xmlns="http://www.w3.org/2000/svg">
<path d="M213.066 41.5343H47.2544C20.2055 41.5343 -1.32546 72.4335 0.0636336 109.271L18.2145 531.07C18.2145 543.69 242.106 543.527 242.106 531.07L260.257 109.271C261.646 72.4335 240.115 41.5266 213.066 41.5266V41.5343Z" fill="#C3CAD6"/>
<path d="M147.075 30.6449H117.092V41.818H147.075V30.6449Z" fill="#C3CAD6"/>
<path d="M119.068 0H145.103C146.193 0 147.075 0.887062 147.075 1.97287V30.64H117.092V1.97287C117.092 0.882215 117.978 0 119.063 0H119.068Z" fill="#C3CAD6"/>
<path d="M216.878 194.122H43.4496C21.7102 194.122 4.40821 215.499 5.52721 240.985L18.222 531.078C18.222 544.307 242.114 544.307 242.114 531.078L254.808 240.985C255.92 215.499 238.618 194.122 216.886 194.122H216.878Z" stroke="#80858E" stroke-width="1.42" stroke-linecap="round" stroke-linejoin="round"/>
<path d="M147.077 183.278H117.092V194.453H147.077V183.278Z" stroke="#80858E" stroke-width="1.42" stroke-linecap="round" stroke-linejoin="round"/>
<path d="M119.765 152.635H144.403C145.876 152.635 147.077 153.832 147.077 155.311V183.278H117.092V155.311C117.092 153.837 118.287 152.635 119.765 152.635Z" stroke="#80858E" stroke-width="1.42" stroke-linecap="round" stroke-linejoin="round"/>
<path d="M120.917 160.455V183.278" stroke="#80858E" stroke-width="1.42" stroke-linecap="round" stroke-linejoin="round"/>
<path d="M124.107 160.455V183.278" stroke="#80858E" stroke-width="1.42" stroke-linecap="round" stroke-linejoin="round"/>
<path d="M127.297 160.455V183.278" stroke="#80858E" stroke-width="1.42" stroke-linecap="round" stroke-linejoin="round"/>
<path d="M130.486 160.455V183.278" stroke="#80858E" stroke-width="1.42" stroke-linecap="round" stroke-linejoin="round"/>
<path d="M133.676 160.455V183.278" stroke="#80858E" stroke-width="1.42" stroke-linecap="round" stroke-linejoin="round"/>
<path d="M136.866 160.455V183.278" stroke="#80858E" stroke-width="1.42" stroke-linecap="round" stroke-linejoin="round"/>
<path d="M140.061 160.455V183.278" stroke="#80858E" stroke-width="1.42" stroke-linecap="round" stroke-linejoin="round"/>
<path d="M143.251 160.455V183.278" stroke="#80858E" stroke-width="1.42" stroke-linecap="round" stroke-linejoin="round"/>
<path d="M29.3271 315.919L31.3336 385.162" stroke="#80858E" stroke-width="1.42" stroke-linecap="round" stroke-linejoin="round"/>
<path d="M230.792 356.109L233.903 248.545C234.396 231.478 222.836 217.322 208.405 217.322H52.8723C38.4411 217.322 26.8807 231.478 27.3746 248.545L28.9798 303.949" stroke="#80858E" stroke-width="1.42" stroke-linecap="round" stroke-linejoin="round"/>
<path d="M31.9048 404.948L32.8077 436.149C33.0392 444.188 34.5827 452.096 37.3917 459.418C44.9855 479.235 97.694 514.675 131.194 514.675C164.695 514.675 216.307 479.235 223.901 459.418C226.71 452.089 228.254 444.188 228.485 436.149L230.484 367.091" stroke="#80858E" stroke-width="1.42" stroke-linecap="round" stroke-linejoin="round"/>
<path d="M92.209 352.086V354H84.0254V352.35L87.9023 347.32C88.3255 346.754 88.651 346.266 88.8789 345.855C89.1133 345.439 89.276 345.064 89.3672 344.732C89.4583 344.4 89.5039 344.075 89.5039 343.756C89.5039 343.313 89.4421 342.923 89.3184 342.584C89.2012 342.245 89.0254 341.982 88.791 341.793C88.5566 341.598 88.2702 341.5 87.9316 341.5C87.5085 341.5 87.1602 341.614 86.8867 341.842C86.6133 342.063 86.4115 342.372 86.2812 342.77C86.151 343.16 86.0859 343.609 86.0859 344.117H83.8105C83.8105 343.29 83.9701 342.532 84.2891 341.842C84.6146 341.152 85.0866 340.605 85.7051 340.201C86.3236 339.791 87.0755 339.586 87.9609 339.586C88.7812 339.586 89.4746 339.745 90.041 340.064C90.6139 340.383 91.0469 340.836 91.3398 341.422C91.6393 342.008 91.7891 342.704 91.7891 343.512C91.7891 343.954 91.7272 344.397 91.6035 344.84C91.4863 345.276 91.3203 345.709 91.1055 346.139C90.8906 346.568 90.6302 347.001 90.3242 347.438C90.0247 347.874 89.6927 348.316 89.3281 348.766L86.877 352.086H92.209ZM101.975 345.699V348.023C101.975 349.137 101.877 350.087 101.682 350.875C101.493 351.656 101.223 352.291 100.871 352.779C100.526 353.268 100.109 353.626 99.6211 353.854C99.1393 354.081 98.6022 354.195 98.0098 354.195C97.541 354.195 97.1016 354.124 96.6914 353.98C96.2812 353.837 95.9102 353.613 95.5781 353.307C95.2526 353.001 94.9727 352.607 94.7383 352.125C94.5104 351.637 94.3314 351.054 94.2012 350.377C94.0775 349.7 94.0156 348.915 94.0156 348.023V345.699C94.0156 344.579 94.1133 343.635 94.3086 342.867C94.5039 342.092 94.7773 341.464 95.1289 340.982C95.4805 340.494 95.8971 340.139 96.3789 339.918C96.8672 339.697 97.4076 339.586 98 339.586C98.4688 339.586 98.9082 339.658 99.3184 339.801C99.7285 339.938 100.096 340.156 100.422 340.455C100.747 340.755 101.027 341.145 101.262 341.627C101.496 342.102 101.672 342.678 101.789 343.355C101.913 344.026 101.975 344.807 101.975 345.699ZM99.709 348.365V345.338C99.709 344.778 99.6829 344.283 99.6309 343.854C99.5788 343.424 99.5072 343.059 99.416 342.76C99.3249 342.46 99.2077 342.219 99.0645 342.037C98.9277 341.848 98.7682 341.712 98.5859 341.627C98.4102 341.536 98.2148 341.49 98 341.49C97.7331 341.49 97.4922 341.559 97.2773 341.695C97.069 341.832 96.89 342.053 96.7402 342.359C96.597 342.659 96.4863 343.056 96.4082 343.551C96.3301 344.039 96.291 344.635 96.291 345.338V348.365C96.291 348.932 96.3171 349.43 96.3691 349.859C96.4212 350.289 96.4961 350.66 96.5938 350.973C96.6914 351.279 96.8086 351.529 96.9453 351.725C97.082 351.913 97.2383 352.053 97.4141 352.145C97.5964 352.236 97.7949 352.281 98.0098 352.281C98.2832 352.281 98.5241 352.21 98.7324 352.066C98.9473 351.923 99.1263 351.699 99.2695 351.393C99.4128 351.08 99.5202 350.673 99.5918 350.172C99.6699 349.671 99.709 349.068 99.709 348.365ZM111.975 345.699V348.023C111.975 349.137 111.877 350.087 111.682 350.875C111.493 351.656 111.223 352.291 110.871 352.779C110.526 353.268 110.109 353.626 109.621 353.854C109.139 354.081 108.602 354.195 108.01 354.195C107.541 354.195 107.102 354.124 106.691 353.98C106.281 353.837 105.91 353.613 105.578 353.307C105.253 353.001 104.973 352.607 104.738 352.125C104.51 351.637 104.331 351.054 104.201 350.377C104.077 349.7 104.016 348.915 104.016 348.023V345.699C104.016 344.579 104.113 343.635 104.309 342.867C104.504 342.092 104.777 341.464 105.129 340.982C105.48 340.494 105.897 340.139 106.379 339.918C106.867 339.697 107.408 339.586 108 339.586C108.469 339.586 108.908 339.658 109.318 339.801C109.729 339.938 110.096 340.156 110.422 340.455C110.747 340.755 111.027 341.145 111.262 341.627C111.496 342.102 111.672 342.678 111.789 343.355C111.913 344.026 111.975 344.807 111.975 345.699ZM109.709 348.365V345.338C109.709 344.778 109.683 344.283 109.631 343.854C109.579 343.424 109.507 343.059 109.416 342.76C109.325 342.46 109.208 342.219 109.064 342.037C108.928 341.848 108.768 341.712 108.586 341.627C108.41 341.536 108.215 341.49 108 341.49C107.733 341.49 107.492 341.559 107.277 341.695C107.069 341.832 106.89 342.053 106.74 342.359C106.597 342.659 106.486 343.056 106.408 343.551C106.33 344.039 106.291 344.635 106.291 345.338V348.365C106.291 348.932 106.317 349.43 106.369 349.859C106.421 350.289 106.496 350.66 106.594 350.973C106.691 351.279 106.809 351.529 106.945 351.725C107.082 351.913 107.238 352.053 107.414 352.145C107.596 352.236 107.795 352.281 108.01 352.281C108.283 352.281 108.524 352.21 108.732 352.066C108.947 351.923 109.126 351.699 109.27 351.393C109.413 351.08 109.52 350.673 109.592 350.172C109.67 349.671 109.709 349.068 109.709 348.365ZM122.922 346.002V347.926H114.514V346.002H122.922ZM127.521 347.408L125.705 346.939L126.369 339.781H132.922V341.822H128.254L127.951 345.25C128.133 345.12 128.378 344.993 128.684 344.869C128.99 344.739 129.335 344.674 129.719 344.674C130.298 344.674 130.809 344.785 131.252 345.006C131.701 345.227 132.082 345.546 132.395 345.963C132.707 346.373 132.941 346.871 133.098 347.457C133.26 348.043 133.342 348.707 133.342 349.449C133.342 350.107 133.26 350.722 133.098 351.295C132.935 351.861 132.684 352.363 132.346 352.799C132.007 353.235 131.584 353.577 131.076 353.824C130.575 354.072 129.989 354.195 129.318 354.195C128.811 354.195 128.326 354.111 127.863 353.941C127.401 353.766 126.984 353.505 126.613 353.16C126.249 352.815 125.952 352.392 125.725 351.891C125.503 351.383 125.38 350.8 125.354 350.143H127.57C127.616 350.598 127.714 350.986 127.863 351.305C128.013 351.624 128.212 351.868 128.459 352.037C128.706 352.2 128.99 352.281 129.309 352.281C129.608 352.281 129.868 352.213 130.09 352.076C130.311 351.933 130.493 351.731 130.637 351.471C130.78 351.21 130.887 350.904 130.959 350.553C131.031 350.195 131.066 349.801 131.066 349.371C131.066 348.961 131.024 348.587 130.939 348.248C130.861 347.903 130.741 347.607 130.578 347.359C130.415 347.105 130.21 346.91 129.963 346.773C129.722 346.637 129.439 346.568 129.113 346.568C128.677 346.568 128.352 346.653 128.137 346.822C127.922 346.985 127.717 347.18 127.521 347.408ZM143.166 345.699V348.023C143.166 349.137 143.068 350.087 142.873 350.875C142.684 351.656 142.414 352.291 142.062 352.779C141.717 353.268 141.301 353.626 140.812 353.854C140.331 354.081 139.794 354.195 139.201 354.195C138.732 354.195 138.293 354.124 137.883 353.98C137.473 353.837 137.102 353.613 136.77 353.307C136.444 353.001 136.164 352.607 135.93 352.125C135.702 351.637 135.523 351.054 135.393 350.377C135.269 349.7 135.207 348.915 135.207 348.023V345.699C135.207 344.579 135.305 343.635 135.5 342.867C135.695 342.092 135.969 341.464 136.32 340.982C136.672 340.494 137.089 340.139 137.57 339.918C138.059 339.697 138.599 339.586 139.191 339.586C139.66 339.586 140.1 339.658 140.51 339.801C140.92 339.938 141.288 340.156 141.613 340.455C141.939 340.755 142.219 341.145 142.453 341.627C142.688 342.102 142.863 342.678 142.98 343.355C143.104 344.026 143.166 344.807 143.166 345.699ZM140.9 348.365V345.338C140.9 344.778 140.874 344.283 140.822 343.854C140.77 343.424 140.699 343.059 140.607 342.76C140.516 342.46 140.399 342.219 140.256 342.037C140.119 341.848 139.96 341.712 139.777 341.627C139.602 341.536 139.406 341.49 139.191 341.49C138.924 341.49 138.684 341.559 138.469 341.695C138.26 341.832 138.081 342.053 137.932 342.359C137.788 342.659 137.678 343.056 137.6 343.551C137.521 344.039 137.482 344.635 137.482 345.338V348.365C137.482 348.932 137.508 349.43 137.561 349.859C137.613 350.289 137.688 350.66 137.785 350.973C137.883 351.279 138 351.529 138.137 351.725C138.273 351.913 138.43 352.053 138.605 352.145C138.788 352.236 138.986 352.281 139.201 352.281C139.475 352.281 139.715 352.21 139.924 352.066C140.139 351.923 140.318 351.699 140.461 351.393C140.604 351.08 140.712 350.673 140.783 350.172C140.861 349.671 140.9 349.068 140.9 348.365ZM153.166 345.699V348.023C153.166 349.137 153.068 350.087 152.873 350.875C152.684 351.656 152.414 352.291 152.062 352.779C151.717 353.268 151.301 353.626 150.812 353.854C150.331 354.081 149.794 354.195 149.201 354.195C148.732 354.195 148.293 354.124 147.883 353.98C147.473 353.837 147.102 353.613 146.77 353.307C146.444 353.001 146.164 352.607 145.93 352.125C145.702 351.637 145.523 351.054 145.393 350.377C145.269 349.7 145.207 348.915 145.207 348.023V345.699C145.207 344.579 145.305 343.635 145.5 342.867C145.695 342.092 145.969 341.464 146.32 340.982C146.672 340.494 147.089 340.139 147.57 339.918C148.059 339.697 148.599 339.586 149.191 339.586C149.66 339.586 150.1 339.658 150.51 339.801C150.92 339.938 151.288 340.156 151.613 340.455C151.939 340.755 152.219 341.145 152.453 341.627C152.688 342.102 152.863 342.678 152.98 343.355C153.104 344.026 153.166 344.807 153.166 345.699ZM150.9 348.365V345.338C150.9 344.778 150.874 344.283 150.822 343.854C150.77 343.424 150.699 343.059 150.607 342.76C150.516 342.46 150.399 342.219 150.256 342.037C150.119 341.848 149.96 341.712 149.777 341.627C149.602 341.536 149.406 341.49 149.191 341.49C148.924 341.49 148.684 341.559 148.469 341.695C148.26 341.832 148.081 342.053 147.932 342.359C147.788 342.659 147.678 343.056 147.6 343.551C147.521 344.039 147.482 344.635 147.482 345.338V348.365C147.482 348.932 147.508 349.43 147.561 349.859C147.613 350.289 147.688 350.66 147.785 350.973C147.883 351.279 148 351.529 148.137 351.725C148.273 351.913 148.43 352.053 148.605 352.145C148.788 352.236 148.986 352.281 149.201 352.281C149.475 352.281 149.715 352.21 149.924 352.066C150.139 351.923 150.318 351.699 150.461 351.393C150.604 351.08 150.712 350.673 150.783 350.172C150.861 349.671 150.9 349.068 150.9 348.365ZM165.324 350.846L167.688 343.434H169.66L166.135 354H164.504L160.969 343.434H162.961L165.324 350.846ZM162.336 343.434V354H160.109V343.434H162.336ZM168.312 354V343.434H170.549V354H168.312ZM178.977 343.434V345.357H174.729V343.434H178.977ZM180.783 343.434V354H178.518V343.434H180.783ZM174.172 343.434H176.428L176.174 348.668C176.135 349.443 176.063 350.126 175.959 350.719C175.861 351.305 175.728 351.806 175.559 352.223C175.389 352.639 175.184 352.978 174.943 353.238C174.702 353.499 174.423 353.691 174.104 353.814C173.791 353.938 173.436 354 173.039 354H172.355L172.346 352.027L172.668 351.988C172.863 351.969 173.033 351.907 173.176 351.803C173.319 351.699 173.439 351.546 173.537 351.344C173.635 351.142 173.713 350.885 173.771 350.572C173.837 350.253 173.885 349.879 173.918 349.449C173.957 349.013 173.986 348.512 174.006 347.945L174.172 343.434Z" fill="#353E48"/>
</svg>
