<svg width="426" height="636" viewBox="0 0 426 636" fill="none" xmlns="http://www.w3.org/2000/svg">
<path d="M281.975 633.065L284.575 625.544H286.087L282.524 635.278H281.427L277.873 625.544H279.385L281.975 633.065ZM278.926 625.544V635.278H277.343V625.544H278.926ZM284.971 635.278V625.544H286.563V635.278H284.971Z" fill="#80858E"/>
<path d="M270.065 633.065L272.665 625.544H274.176L270.614 635.278H269.516L265.963 625.544H267.474L270.065 633.065ZM267.015 625.544V635.278H265.432V625.544H267.015ZM273.06 635.278V625.544H274.653V635.278H273.06Z" fill="#80858E"/>
<path d="M258.811 627.685V629.682C258.811 630.756 258.727 631.662 258.559 632.399C258.397 633.137 258.164 633.731 257.858 634.18C257.552 634.63 257.183 634.957 256.751 635.161C256.325 635.359 255.846 635.458 255.312 635.458C254.892 635.458 254.499 635.395 254.133 635.269C253.774 635.143 253.45 634.942 253.162 634.666C252.874 634.384 252.628 634.018 252.424 633.569C252.22 633.119 252.064 632.573 251.956 631.931C251.848 631.29 251.794 630.54 251.794 629.682V627.685C251.794 626.612 251.878 625.712 252.046 624.987C252.214 624.261 252.451 623.679 252.757 623.241C253.069 622.798 253.438 622.48 253.863 622.288C254.295 622.096 254.775 622 255.303 622C255.729 622 256.121 622.063 256.481 622.189C256.847 622.309 257.171 622.504 257.453 622.774C257.741 623.038 257.987 623.391 258.191 623.835C258.394 624.273 258.547 624.81 258.649 625.445C258.757 626.081 258.811 626.828 258.811 627.685ZM257.228 629.952V627.407C257.228 626.819 257.201 626.303 257.147 625.859C257.093 625.409 257.012 625.026 256.904 624.708C256.802 624.39 256.673 624.132 256.517 623.934C256.361 623.736 256.181 623.592 255.978 623.502C255.774 623.406 255.549 623.358 255.303 623.358C254.997 623.358 254.724 623.433 254.484 623.583C254.25 623.727 254.049 623.958 253.881 624.276C253.72 624.594 253.597 625.011 253.513 625.526C253.429 626.042 253.387 626.669 253.387 627.407V629.952C253.387 630.54 253.414 631.059 253.468 631.509C253.528 631.958 253.609 632.348 253.711 632.678C253.819 633.002 253.95 633.269 254.106 633.479C254.262 633.689 254.442 633.845 254.646 633.947C254.85 634.042 255.072 634.09 255.312 634.09C255.63 634.09 255.906 634.012 256.139 633.857C256.379 633.701 256.58 633.458 256.742 633.128C256.904 632.792 257.024 632.363 257.102 631.841C257.186 631.314 257.228 630.684 257.228 629.952Z" fill="#80858E"/>
<path d="M244.633 629.044L243.364 628.702L243.922 622.18H249.625V623.718H245.262L244.957 627.28C245.16 627.143 245.406 627.014 245.694 626.894C245.982 626.774 246.318 626.714 246.702 626.714C247.218 626.714 247.676 626.819 248.078 627.029C248.486 627.232 248.831 627.526 249.113 627.91C249.395 628.294 249.61 628.756 249.76 629.296C249.91 629.835 249.985 630.438 249.985 631.104C249.985 631.733 249.91 632.312 249.76 632.84C249.616 633.368 249.395 633.829 249.095 634.225C248.801 634.615 248.429 634.918 247.979 635.134C247.535 635.35 247.017 635.458 246.423 635.458C245.979 635.458 245.559 635.386 245.163 635.242C244.768 635.092 244.411 634.867 244.093 634.567C243.781 634.261 243.526 633.883 243.328 633.434C243.13 632.978 243.007 632.444 242.959 631.832H244.462C244.522 632.324 244.636 632.738 244.804 633.074C244.978 633.41 245.199 633.665 245.469 633.838C245.745 634.006 246.063 634.09 246.423 634.09C246.729 634.09 247.005 634.021 247.251 633.883C247.496 633.746 247.703 633.548 247.871 633.29C248.039 633.032 248.168 632.72 248.258 632.354C248.348 631.988 248.393 631.578 248.393 631.122C248.393 630.708 248.348 630.324 248.258 629.97C248.168 629.616 248.033 629.308 247.853 629.044C247.673 628.78 247.454 628.576 247.197 628.432C246.945 628.282 246.651 628.207 246.315 628.207C245.865 628.207 245.532 628.282 245.316 628.432C245.106 628.582 244.879 628.786 244.633 629.044Z" fill="#80858E"/>
<path d="M238.345 622.108V635.278H236.753V624.186L234 625.409V623.907L238.102 622.108H238.345Z" fill="#80858E"/>
<path d="M11.0647 291.588L3.54419 288.988L3.54419 287.477L13.2777 291.039L13.2777 292.137L3.54419 295.69L3.54419 294.179L11.0647 291.588ZM3.54419 294.638L13.2777 294.638L13.2777 296.221L3.54419 296.221L3.54419 294.638ZM13.2777 288.592L3.54419 288.592L3.54419 287L13.2777 287L13.2777 288.592Z" fill="#80858E"/>
<path d="M11.0647 303.499L3.54419 300.899L3.54419 299.387L13.2777 302.95L13.2777 304.047L3.54419 307.601L3.54419 306.089L11.0647 303.499ZM3.54419 306.548L13.2777 306.548L13.2777 308.131L3.54419 308.131L3.54419 306.548ZM13.2777 300.503L3.54419 300.503L3.54419 298.911L13.2777 298.911L13.2777 300.503Z" fill="#80858E"/>
<path d="M5.68539 314.752L7.68248 314.752C8.75598 314.752 9.66157 314.836 10.3992 315.004C11.1369 315.166 11.7306 315.4 12.1804 315.706C12.6302 316.012 12.9571 316.381 13.161 316.812C13.3589 317.238 13.4578 317.718 13.4578 318.252C13.4578 318.671 13.3949 319.064 13.2689 319.43C13.143 319.79 12.9421 320.114 12.6662 320.402C12.3843 320.69 12.0185 320.935 11.5687 321.139C11.1189 321.343 10.5732 321.499 9.93145 321.607C9.28974 321.715 8.54008 321.769 7.68248 321.769L5.68539 321.769C4.61189 321.769 3.7123 321.685 2.98663 321.517C2.26096 321.349 1.67923 321.112 1.24143 320.806C0.797634 320.495 0.47978 320.126 0.287868 319.7C0.0959559 319.268 -1.30288e-07 318.788 -1.53357e-07 318.261C-1.71969e-07 317.835 0.0629709 317.442 0.188913 317.082C0.308858 316.716 0.503769 316.393 0.773645 316.111C1.03752 315.823 1.39136 315.577 1.83516 315.373C2.27296 315.169 2.80971 315.016 3.44542 314.914C4.08113 314.806 4.82779 314.752 5.68539 314.752ZM7.95235 316.336L5.40652 316.336C4.81879 316.336 4.30303 316.363 3.85923 316.416C3.40944 316.47 3.02561 316.551 2.70776 316.659C2.3899 316.761 2.13202 316.89 1.93411 317.046C1.7362 317.202 1.59227 317.382 1.50231 317.586C1.40636 317.79 1.35838 318.015 1.35838 318.261C1.35838 318.567 1.43334 318.839 1.58327 319.079C1.72721 319.313 1.9581 319.514 2.27596 319.682C2.59381 319.844 3.01062 319.967 3.52638 320.051C4.04215 320.135 4.66886 320.177 5.40652 320.177L7.95235 320.177C8.54008 320.177 9.05885 320.15 9.50864 320.096C9.95843 320.036 10.3483 319.955 10.6781 319.853C11.002 319.745 11.2688 319.613 11.4787 319.457C11.6886 319.301 11.8446 319.121 11.9465 318.917C12.0425 318.713 12.0905 318.492 12.0905 318.252C12.0905 317.934 12.0125 317.658 11.8566 317.424C11.7006 317.184 11.4577 316.983 11.1279 316.821C10.7921 316.659 10.3632 316.539 9.84149 316.461C9.31373 316.378 8.68402 316.336 7.95235 316.336Z" fill="#80858E"/>
<path d="M7.04452 328.93L6.70267 330.198L0.180664 329.64L0.180664 323.937L1.71896 323.937L1.71896 328.3L5.28133 328.606C5.14339 328.402 5.01445 328.156 4.8945 327.868C4.77456 327.58 4.71459 327.245 4.71459 326.861C4.71459 326.345 4.81954 325.886 5.02944 325.484C5.23335 325.077 5.52721 324.732 5.91104 324.45C6.29486 324.168 6.75665 323.952 7.2964 323.802C7.83615 323.652 8.43888 323.577 9.10457 323.577C9.73428 323.577 10.313 323.652 10.8408 323.802C11.3685 323.946 11.8303 324.168 12.2261 324.468C12.616 324.762 12.9188 325.134 13.1347 325.583C13.3506 326.027 13.4586 326.546 13.4586 327.14C13.4586 327.583 13.3866 328.003 13.2427 328.399C13.0927 328.795 12.8678 329.152 12.568 329.47C12.2621 329.781 11.8843 330.036 11.4345 330.234C10.9787 330.432 10.445 330.555 9.83324 330.603L9.83324 329.101C10.325 329.041 10.7388 328.927 11.0747 328.759C11.4105 328.585 11.6654 328.363 11.8393 328.093C12.0072 327.817 12.0912 327.499 12.0912 327.14C12.0912 326.834 12.0222 326.558 11.8843 326.312C11.7464 326.066 11.5485 325.859 11.2906 325.691C11.0327 325.523 10.7208 325.394 10.355 325.304C9.98917 325.214 9.57836 325.17 9.12256 325.17C8.70875 325.17 8.32493 325.214 7.97109 325.304C7.61725 325.394 7.3084 325.529 7.04452 325.709C6.78064 325.889 6.57673 326.108 6.4328 326.366C6.28287 326.618 6.2079 326.912 6.2079 327.248C6.2079 327.697 6.28287 328.03 6.4328 328.246C6.58273 328.456 6.78664 328.684 7.04452 328.93Z" fill="#80858E"/>
<path d="M11.9105 332.636L13.2779 332.636L13.2779 339.959L12.0815 339.959L7.30465 336.351C6.71692 335.908 6.21915 335.569 5.81134 335.335C5.39753 335.101 5.02869 334.939 4.70484 334.849C4.37499 334.759 4.03915 334.714 3.6973 334.714C3.2655 334.714 2.87568 334.783 2.52784 334.921C2.174 335.059 1.89213 335.26 1.68223 335.524C1.47232 335.788 1.36737 336.106 1.36737 336.477C1.36737 336.963 1.48132 337.362 1.70922 337.674C1.93111 337.98 2.24297 338.205 2.64479 338.349C3.0466 338.493 3.50839 338.564 4.03015 338.564L4.03015 340.157C3.29249 340.157 2.6178 340.022 2.00608 339.752C1.39436 339.476 0.908583 339.065 0.548748 338.519C0.182916 337.974 -1.25176e-07 337.293 -1.60828e-07 336.477C-1.91499e-07 335.776 0.146932 335.176 0.440798 334.678C0.728666 334.174 1.13648 333.791 1.66424 333.527C2.186 333.257 2.79772 333.122 3.4994 333.122C3.88322 333.122 4.27304 333.176 4.66886 333.284C5.05868 333.386 5.4485 333.53 5.83832 333.716C6.22814 333.896 6.61197 334.109 6.98979 334.354C7.36762 334.6 7.73945 334.864 8.10528 335.146L11.9105 338.052L11.9105 332.636Z" fill="#80858E"/>
<path d="M42.0647 314.588L34.5442 311.988L34.5442 310.477L44.2777 314.039L44.2777 315.137L34.5442 318.69L34.5442 317.179L42.0647 314.588ZM34.5442 317.638L44.2777 317.638L44.2777 319.221L34.5442 319.221L34.5442 317.638ZM44.2777 311.592L34.5442 311.592L34.5442 310L44.2777 310L44.2777 311.592Z" fill="#80858E"/>
<path d="M42.0647 326.499L34.5442 323.899L34.5442 322.387L44.2777 325.95L44.2777 327.047L34.5442 330.601L34.5442 329.089L42.0647 326.499ZM34.5442 329.548L44.2777 329.548L44.2777 331.131L34.5442 331.131L34.5442 329.548ZM44.2777 323.503L34.5442 323.503L34.5442 321.911L44.2777 321.911L44.2777 323.503Z" fill="#80858E"/>
<path d="M36.6854 337.752L38.6825 337.752C39.756 337.752 40.6616 337.836 41.3992 338.004C42.1369 338.166 42.7306 338.4 43.1804 338.706C43.6302 339.012 43.9571 339.381 44.161 339.812C44.3589 340.238 44.4578 340.718 44.4578 341.252C44.4578 341.671 44.3949 342.064 44.2689 342.43C44.143 342.79 43.9421 343.114 43.6662 343.402C43.3843 343.69 43.0185 343.935 42.5687 344.139C42.1189 344.343 41.5732 344.499 40.9314 344.607C40.2897 344.715 39.5401 344.769 38.6825 344.769L36.6854 344.769C35.6119 344.769 34.7123 344.685 33.9866 344.517C33.261 344.349 32.6792 344.112 32.2414 343.806C31.7976 343.495 31.4798 343.126 31.2879 342.7C31.096 342.268 31 341.788 31 341.261C31 340.835 31.063 340.442 31.1889 340.082C31.3089 339.716 31.5038 339.393 31.7736 339.111C32.0375 338.823 32.3914 338.577 32.8352 338.373C33.273 338.169 33.8097 338.016 34.4454 337.914C35.0811 337.806 35.8278 337.752 36.6854 337.752ZM38.9524 339.336L36.4065 339.336C35.8188 339.336 35.303 339.363 34.8592 339.416C34.4094 339.47 34.0256 339.551 33.7078 339.659C33.3899 339.761 33.132 339.89 32.9341 340.046C32.7362 340.202 32.5923 340.382 32.5023 340.586C32.4064 340.79 32.3584 341.015 32.3584 341.261C32.3584 341.567 32.4333 341.839 32.5833 342.079C32.7272 342.313 32.9581 342.514 33.276 342.682C33.5938 342.844 34.0106 342.967 34.5264 343.051C35.0421 343.135 35.6689 343.177 36.4065 343.177L38.9524 343.177C39.5401 343.177 40.0588 343.15 40.5086 343.096C40.9584 343.036 41.3483 342.955 41.6781 342.853C42.002 342.745 42.2688 342.613 42.4787 342.457C42.6886 342.301 42.8446 342.121 42.9465 341.917C43.0425 341.713 43.0905 341.492 43.0905 341.252C43.0905 340.934 43.0125 340.658 42.8566 340.424C42.7006 340.184 42.4577 339.983 42.1279 339.821C41.7921 339.659 41.3632 339.539 40.8415 339.461C40.3137 339.378 39.684 339.336 38.9524 339.336Z" fill="#80858E"/>
<path d="M36.9103 351.813L36.9103 350.787C36.9103 350.332 36.8143 349.954 36.6224 349.654C36.4245 349.354 36.1576 349.132 35.8218 348.988C35.4799 348.838 35.0961 348.763 34.6703 348.763C34.1665 348.763 33.7437 348.829 33.4019 348.961C33.0601 349.093 32.8022 349.291 32.6283 349.555C32.4543 349.813 32.3674 350.14 32.3674 350.535C32.3674 350.907 32.4603 351.231 32.6462 351.507C32.8262 351.783 33.084 351.996 33.4199 352.146C33.7557 352.296 34.1516 352.371 34.6073 352.371L34.6073 353.954C33.9417 353.954 33.3359 353.816 32.7902 353.54C32.2444 353.258 31.8096 352.862 31.4858 352.353C31.1619 351.837 31 351.231 31 350.535C31 349.87 31.1409 349.285 31.4228 348.781C31.6987 348.278 32.1125 347.885 32.6642 347.603C33.21 347.315 33.8907 347.171 34.7063 347.171C35.0361 347.171 35.39 347.234 35.7678 347.36C36.1396 347.48 36.4875 347.675 36.8113 347.945C37.1352 348.209 37.4021 348.556 37.612 348.988C37.8159 349.414 37.9178 349.936 37.9178 350.553L37.9178 351.813L36.9103 351.813ZM38.2777 351.813L37.2791 351.813L37.2791 350.553C37.2791 349.822 37.3781 349.225 37.576 348.763C37.7739 348.302 38.0378 347.945 38.3676 347.693C38.6975 347.441 39.0603 347.267 39.4561 347.171C39.8459 347.069 40.2358 347.018 40.6256 347.018C41.2373 347.018 41.7801 347.108 42.2538 347.288C42.7276 347.462 43.1294 347.711 43.4593 348.035C43.7891 348.352 44.038 348.724 44.2059 349.15C44.3739 349.576 44.4578 350.041 44.4578 350.544C44.4578 351.036 44.3769 351.492 44.2149 351.912C44.053 352.332 43.8191 352.7 43.5133 353.018C43.2014 353.336 42.8206 353.585 42.3708 353.765C41.915 353.939 41.3962 354.026 40.8145 354.026L40.8145 352.434C41.2703 352.434 41.6691 352.359 42.011 352.209C42.3528 352.059 42.6197 351.843 42.8116 351.561C42.9975 351.279 43.0905 350.94 43.0905 350.544C43.0905 350.149 43.0035 349.807 42.8296 349.519C42.6497 349.231 42.3798 349.009 42.0199 348.853C41.6601 348.691 41.2073 348.61 40.6616 348.61C40.1158 348.61 39.669 348.7 39.3212 348.88C38.9673 349.054 38.7065 349.303 38.5385 349.627C38.3646 349.951 38.2777 350.338 38.2777 350.787L38.2777 351.813Z" fill="#80858E"/>
<path d="M42.9105 355.636L44.2779 355.636L44.2779 362.959L43.0815 362.959L38.3047 359.351C37.7169 358.908 37.2191 358.569 36.8113 358.335C36.3975 358.101 36.0287 357.939 35.7048 357.849C35.375 357.759 35.0391 357.714 34.6973 357.714C34.2655 357.714 33.8757 357.783 33.5278 357.921C33.174 358.059 32.8921 358.26 32.6822 358.524C32.4723 358.788 32.3674 359.106 32.3674 359.477C32.3674 359.963 32.4813 360.362 32.7092 360.674C32.9311 360.98 33.243 361.205 33.6448 361.349C34.0466 361.493 34.5084 361.564 35.0302 361.564L35.0302 363.157C34.2925 363.157 33.6178 363.022 33.0061 362.752C32.3944 362.476 31.9086 362.065 31.5487 361.519C31.1829 360.974 31 360.293 31 359.477C31 358.776 31.1469 358.176 31.4408 357.678C31.7287 357.174 32.1365 356.791 32.6642 356.527C33.186 356.257 33.7977 356.122 34.4994 356.122C34.8832 356.122 35.273 356.176 35.6689 356.284C36.0587 356.386 36.4485 356.53 36.8383 356.716C37.2281 356.896 37.612 357.109 37.9898 357.354C38.3676 357.6 38.7395 357.864 39.1053 358.146L42.9105 361.052L42.9105 355.636Z" fill="#80858E"/>
<path d="M19.65 586.35C19.8433 586.543 20.1567 586.543 20.35 586.35L23.5002 583.2C23.6935 583.007 23.6935 582.693 23.5002 582.5C23.3069 582.307 22.9935 582.307 22.8001 582.5L20 585.3L17.1999 582.5C17.0065 582.307 16.6931 582.307 16.4998 582.5C16.3065 582.693 16.3065 583.007 16.4998 583.2L19.65 586.35ZM20.35 39.65C20.1567 39.4567 19.8433 39.4567 19.65 39.65L16.4998 42.8001C16.3065 42.9935 16.3065 43.3069 16.4998 43.5002C16.6931 43.6935 17.0065 43.6935 17.1999 43.5002L20 40.7L22.8001 43.5002C22.9935 43.6935 23.3069 43.6935 23.5002 43.5002C23.6935 43.3069 23.6935 42.9935 23.5002 42.8001L20.35 39.65ZM19.505 40L19.505 42.0074H20.495L20.495 40H19.505ZM19.505 46.0221L19.505 50.0368H20.495L20.495 46.0221H19.505ZM19.505 54.0515L19.505 58.0662H20.495L20.495 54.0515H19.505ZM19.505 62.0809L19.505 66.0956H20.495L20.495 62.0809H19.505ZM19.505 70.1103L19.505 74.125H20.495L20.495 70.1103H19.505ZM19.505 78.1397L19.505 82.1544H20.495L20.495 78.1397H19.505ZM19.505 86.1691L19.505 90.1838H20.495L20.495 86.1691H19.505ZM19.505 94.1985L19.505 98.2132H20.495L20.495 94.1985H19.505ZM19.505 102.228L19.505 106.243H20.495L20.495 102.228H19.505ZM19.505 110.257L19.505 114.272H20.495L20.495 110.257H19.505ZM19.505 118.287L19.505 122.301H20.495L20.495 118.287H19.505ZM19.505 126.316L19.505 130.331H20.495L20.495 126.316H19.505ZM19.505 134.346L19.505 138.36H20.495L20.495 134.346H19.505ZM19.505 142.375L19.505 146.39H20.495L20.495 142.375H19.505ZM19.505 150.404L19.505 154.419H20.495L20.495 150.404H19.505ZM19.505 158.434L19.505 162.449H20.495L20.495 158.434H19.505ZM19.505 166.463L19.505 170.478H20.495L20.495 166.463H19.505ZM19.505 174.493L19.505 178.507H20.495L20.495 174.493H19.505ZM19.505 182.522L19.505 186.537H20.495L20.495 182.522H19.505ZM19.505 190.552L19.505 194.566H20.495L20.495 190.552H19.505ZM19.505 198.581L19.505 202.596H20.495L20.495 198.581H19.505ZM19.505 206.61L19.505 210.625H20.495L20.495 206.61H19.505ZM19.505 214.64L19.505 218.655H20.495L20.495 214.64H19.505ZM19.505 222.669L19.505 226.684H20.495L20.495 222.669H19.505ZM19.505 230.699L19.505 234.713H20.495L20.495 230.699H19.505ZM19.505 238.728L19.505 242.743H20.495L20.495 238.728H19.505ZM19.505 246.757L19.505 250.772H20.495L20.495 246.757H19.505ZM19.505 254.787L19.505 258.802H20.495L20.495 254.787H19.505ZM19.505 262.816L19.505 266.831H20.495L20.495 262.816H19.505ZM19.505 270.846L19.505 274.86H20.495L20.495 270.846H19.505ZM19.505 278.875L19.505 282.89H20.495L20.495 278.875H19.505ZM19.505 286.905L19.505 290.919H20.495L20.495 286.905H19.505ZM19.505 294.934L19.505 298.949H20.495L20.495 294.934H19.505ZM19.505 302.963L19.505 306.978H20.495L20.495 302.963H19.505ZM19.505 310.993L19.505 315.008H20.495L20.495 310.993H19.505ZM19.505 319.022L19.505 323.037H20.495L20.495 319.022H19.505ZM19.505 327.052L19.505 331.066H20.495L20.495 327.052H19.505ZM19.505 335.081L19.505 339.096H20.495L20.495 335.081H19.505ZM19.505 343.111L19.505 347.125H20.495L20.495 343.111H19.505ZM19.505 351.14L19.505 355.155H20.495L20.495 351.14H19.505ZM19.505 359.169L19.505 363.184H20.495L20.495 359.169H19.505ZM19.505 367.199L19.505 371.213H20.495L20.495 367.199H19.505ZM19.505 375.228L19.505 379.243H20.495L20.495 375.228H19.505ZM19.505 383.258L19.505 387.272H20.495L20.495 383.258H19.505ZM19.505 391.287L19.505 395.302H20.495L20.495 391.287H19.505ZM19.505 399.316L19.505 403.331H20.495L20.495 399.316H19.505ZM19.505 407.346L19.505 411.361H20.495L20.495 407.346H19.505ZM19.505 415.375L19.505 419.39H20.495L20.495 415.375H19.505ZM19.505 423.405L19.505 427.419H20.495L20.495 423.405H19.505ZM19.505 431.434L19.505 435.449H20.495L20.495 431.434H19.505ZM19.505 439.464L19.505 443.478H20.495L20.495 439.464H19.505ZM19.505 447.493L19.505 451.508H20.495L20.495 447.493H19.505ZM19.505 455.522L19.505 459.537H20.495L20.495 455.522H19.505ZM19.505 463.552L19.505 467.566H20.495L20.495 463.552H19.505ZM19.505 471.581L19.505 475.596H20.495L20.495 471.581H19.505ZM19.505 479.611L19.505 483.625H20.495L20.495 479.611H19.505ZM19.505 487.64L19.505 491.655H20.495L20.495 487.64H19.505ZM19.505 495.669L19.505 499.684H20.495L20.495 495.669H19.505ZM19.505 503.699L19.505 507.714H20.495L20.495 503.699H19.505ZM19.505 511.728L19.505 515.743H20.495L20.495 511.728H19.505ZM19.505 519.758L19.505 523.772H20.495L20.495 519.758H19.505ZM19.505 527.787L19.505 531.802H20.495L20.495 527.787H19.505ZM19.505 535.817L19.505 539.831H20.495L20.495 535.817H19.505ZM19.505 543.846L19.505 547.861H20.495L20.495 543.846H19.505ZM19.505 551.875L19.505 555.89H20.495L20.495 551.875H19.505ZM19.505 559.905L19.505 563.919H20.495L20.495 559.905H19.505ZM19.505 567.934L19.505 571.949H20.495L20.495 567.934H19.505ZM19.505 575.964L19.505 579.978H20.495L20.495 575.964H19.505ZM19.505 583.993L19.505 586H20.495L20.495 583.993H19.505Z" fill="#80858E"/>
<path d="M95.6504 610.65C95.4569 610.843 95.4565 611.156 95.6495 611.35L98.7958 614.504C98.9889 614.697 99.3023 614.698 99.4959 614.505C99.6894 614.311 99.6898 613.998 99.4967 613.804L96.7 611.001L99.5036 608.204C99.6972 608.011 99.6976 607.698 99.5045 607.504C99.3114 607.311 98.998 607.31 98.8045 607.503L95.6504 610.65ZM425.34 611.757C425.534 611.564 425.534 611.25 425.341 611.057L422.195 607.903C422.002 607.709 421.688 607.709 421.495 607.902C421.301 608.095 421.301 608.408 421.494 608.602L424.29 611.406L421.487 614.202C421.293 614.395 421.293 614.709 421.486 614.902C421.679 615.096 421.992 615.096 422.186 614.903L425.34 611.757ZM95.9994 611.495L98.0054 611.497L98.0067 610.507L96.0006 610.505L95.9994 611.495ZM102.018 611.502L106.03 611.507L106.031 610.517L102.019 610.512L102.018 611.502ZM110.042 611.512L114.054 611.517L114.055 610.527L110.043 610.522L110.042 611.512ZM118.066 611.522L122.078 611.527L122.079 610.537L118.067 610.532L118.066 611.522ZM126.09 611.532L130.102 611.537L130.103 610.547L126.091 610.542L126.09 611.532ZM134.114 611.542L138.126 611.547L138.127 610.557L134.115 610.552L134.114 611.542ZM142.138 611.552L146.15 611.557L146.152 610.567L142.14 610.562L142.138 611.552ZM150.162 611.562L154.175 611.567L154.176 610.577L150.164 610.572L150.162 611.562ZM158.187 611.572L162.199 611.577L162.2 610.587L158.188 610.582L158.187 611.572ZM166.211 611.582L170.223 611.587L170.224 610.597L166.212 610.592L166.211 611.582ZM174.235 611.592L178.247 611.597L178.248 610.607L174.236 610.602L174.235 611.592ZM182.259 611.602L186.271 611.607L186.272 610.617L182.26 610.612L182.259 611.602ZM190.283 611.611L194.295 611.616L194.296 610.626L190.284 610.621L190.283 611.611ZM198.307 611.621L202.319 611.626L202.321 610.636L198.309 610.631L198.307 611.621ZM206.331 611.631L210.344 611.636L210.345 610.646L206.333 610.641L206.331 611.631ZM214.356 611.641L218.368 611.646L218.369 610.656L214.357 610.651L214.356 611.641ZM222.38 611.651L226.392 611.656L226.393 610.666L222.381 610.661L222.38 611.651ZM230.404 611.661L234.416 611.666L234.417 610.676L230.405 610.671L230.404 611.661ZM238.428 611.671L242.44 611.676L242.441 610.686L238.429 610.681L238.428 611.671ZM246.452 611.681L250.464 611.686L250.466 610.696L246.453 610.691L246.452 611.681ZM254.476 611.691L258.489 611.696L258.49 610.706L254.478 610.701L254.476 611.691ZM262.501 611.701L266.513 611.706L266.514 610.716L262.502 610.711L262.501 611.701ZM270.525 611.711L274.537 611.716L274.538 610.726L270.526 610.721L270.525 611.711ZM278.549 611.721L282.561 611.726L282.562 610.736L278.55 610.731L278.549 611.721ZM286.573 611.73L290.585 611.735L290.586 610.745L286.574 610.74L286.573 611.73ZM294.597 611.74L298.609 611.745L298.611 610.755L294.598 610.75L294.597 611.74ZM302.621 611.75L306.634 611.755L306.635 610.765L302.623 610.76L302.621 611.75ZM310.646 611.76L314.658 611.765L314.659 610.775L310.647 610.77L310.646 611.76ZM318.67 611.77L322.682 611.775L322.683 610.785L318.671 610.78L318.67 611.77ZM326.694 611.78L330.706 611.785L330.707 610.795L326.695 610.79L326.694 611.78ZM334.718 611.79L338.73 611.795L338.731 610.805L334.719 610.8L334.718 611.79ZM342.742 611.8L346.754 611.805L346.756 610.815L342.743 610.81L342.742 611.8ZM350.766 611.81L354.778 611.815L354.78 610.825L350.768 610.82L350.766 611.81ZM358.791 611.82L362.803 611.825L362.804 610.835L358.792 610.83L358.791 611.82ZM366.815 611.83L370.827 611.835L370.828 610.845L366.816 610.84L366.815 611.83ZM374.839 611.84L378.851 611.844L378.852 610.854L374.84 610.85L374.839 611.84ZM382.863 611.849L386.875 611.854L386.876 610.864L382.864 610.859L382.863 611.849ZM390.887 611.859L394.899 611.864L394.901 610.874L390.888 610.869L390.887 611.859ZM398.911 611.869L402.923 611.874L402.925 610.884L398.913 610.879L398.911 611.869ZM406.936 611.879L410.948 611.884L410.949 610.894L406.937 610.889L406.936 611.879ZM414.96 611.889L418.972 611.894L418.973 610.904L414.961 610.899L414.96 611.889ZM422.984 611.899L424.99 611.901L424.991 610.911L422.985 610.909L422.984 611.899Z" fill="#80858E"/>
<path d="M96 596V626.418" stroke="#80858E" stroke-width="0.99" stroke-linecap="round" stroke-linejoin="round"/>
<path d="M424.991 596V626.418" stroke="#80858E" stroke-width="0.99" stroke-linecap="round" stroke-linejoin="round"/>
<path d="M14 587H96" stroke="#80858E" stroke-width="0.99" stroke-linecap="round" stroke-linejoin="round"/>
<path d="M54.65 586.35C54.8433 586.543 55.1567 586.543 55.35 586.35L58.5002 583.2C58.6935 583.007 58.6935 582.693 58.5002 582.5C58.3069 582.306 57.9935 582.306 57.8001 582.5L55 585.3L52.1999 582.5C52.0065 582.306 51.6931 582.306 51.4998 582.5C51.3065 582.693 51.3065 583.007 51.4998 583.2L54.65 586.35ZM55.35 85.65C55.1567 85.4567 54.8433 85.4567 54.65 85.65L51.4998 88.8001C51.3065 88.9935 51.3065 89.3069 51.4998 89.5002C51.6931 89.6935 52.0065 89.6935 52.1999 89.5002L55 86.7L57.8001 89.5002C57.9935 89.6935 58.3069 89.6935 58.5002 89.5002C58.6935 89.3069 58.6935 88.9935 58.5002 88.8001L55.35 85.65ZM54.505 86L54.505 87.9841H55.495L55.495 86H54.505ZM54.505 91.9524L54.505 95.9206H55.495L55.495 91.9524H54.505ZM54.505 99.8889L54.505 103.857H55.495L55.495 99.8889H54.505ZM54.505 107.825L54.505 111.794H55.495L55.495 107.825H54.505ZM54.505 115.762L54.505 119.73H55.495L55.495 115.762H54.505ZM54.505 123.698L54.505 127.667H55.495L55.495 123.698H54.505ZM54.505 131.635L54.505 135.603H55.495L55.495 131.635H54.505ZM54.505 139.571L54.505 143.54H55.495L55.495 139.571H54.505ZM54.505 147.508L54.505 151.476H55.495L55.495 147.508H54.505ZM54.505 155.444L54.505 159.413H55.495L55.495 155.444H54.505ZM54.505 163.381L54.505 167.349H55.495L55.495 163.381H54.505ZM54.505 171.317L54.505 175.286H55.495L55.495 171.317H54.505ZM54.505 179.254L54.505 183.222H55.495L55.495 179.254H54.505ZM54.505 187.19L54.505 191.159H55.495L55.495 187.19H54.505ZM54.505 195.127L54.505 199.095H55.495L55.495 195.127H54.505ZM54.505 203.063L54.505 207.032H55.495L55.495 203.063H54.505ZM54.505 211L54.505 214.968H55.495L55.495 211H54.505ZM54.505 218.936L54.505 222.905H55.495L55.495 218.936H54.505ZM54.505 226.873L54.505 230.841H55.495L55.495 226.873H54.505ZM54.505 234.809L54.505 238.778H55.495L55.495 234.809H54.505ZM54.505 242.746L54.505 246.714H55.495L55.495 242.746H54.505ZM54.505 250.682L54.505 254.651H55.495L55.495 250.682H54.505ZM54.505 258.619L54.505 262.587H55.495L55.495 258.619H54.505ZM54.505 266.555L54.505 270.524H55.495L55.495 266.555H54.505ZM54.505 274.492L54.505 278.46H55.495L55.495 274.492H54.505ZM54.505 282.428L54.505 286.397H55.495L55.495 282.428H54.505ZM54.505 290.365L54.505 294.333H55.495L55.495 290.365H54.505ZM54.505 298.301L54.505 302.27H55.495L55.495 298.301H54.505ZM54.505 306.238L54.505 310.206H55.495L55.495 306.238H54.505ZM54.505 314.174L54.505 318.143H55.495L55.495 314.174H54.505ZM54.505 322.111L54.505 326.079H55.495L55.495 322.111H54.505ZM54.505 330.047L54.505 334.016H55.495L55.495 330.047H54.505ZM54.505 337.984L54.505 341.952H55.495L55.495 337.984H54.505ZM54.505 345.92L54.505 349.889H55.495L55.495 345.92H54.505ZM54.505 353.857L54.505 357.825H55.495L55.495 353.857H54.505ZM54.505 361.793L54.505 365.762H55.495L55.495 361.793H54.505ZM54.505 369.73L54.505 373.698H55.495L55.495 369.73H54.505ZM54.505 377.666L54.505 381.635H55.495L55.495 377.666H54.505ZM54.505 385.603L54.505 389.571H55.495L55.495 385.603H54.505ZM54.505 393.54L54.505 397.508H55.495L55.495 393.54H54.505ZM54.505 401.476L54.505 405.444H55.495L55.495 401.476H54.505ZM54.505 409.413L54.505 413.381H55.495L55.495 409.413H54.505ZM54.505 417.349L54.505 421.317H55.495L55.495 417.349H54.505ZM54.505 425.286L54.505 429.254H55.495L55.495 425.286H54.505ZM54.505 433.222L54.505 437.19H55.495L55.495 433.222H54.505ZM54.505 441.159L54.505 445.127H55.495L55.495 441.159H54.505ZM54.505 449.095L54.505 453.063H55.495L55.495 449.095H54.505ZM54.505 457.032L54.505 461H55.495L55.495 457.032H54.505ZM54.505 464.968L54.505 468.936H55.495L55.495 464.968H54.505ZM54.505 472.905L54.505 476.873H55.495L55.495 472.905H54.505ZM54.505 480.841L54.505 484.81H55.495L55.495 480.841H54.505ZM54.505 488.778L54.505 492.746H55.495L55.495 488.778H54.505ZM54.505 496.714L54.505 500.683H55.495L55.495 496.714H54.505ZM54.505 504.651L54.505 508.619H55.495L55.495 504.651H54.505ZM54.505 512.587L54.505 516.556H55.495L55.495 512.587H54.505ZM54.505 520.524L54.505 524.492H55.495L55.495 520.524H54.505ZM54.505 528.46L54.505 532.429H55.495L55.495 528.46H54.505ZM54.505 536.397L54.505 540.365H55.495L55.495 536.397H54.505ZM54.505 544.333L54.505 548.302H55.495L55.495 544.333H54.505ZM54.505 552.27L54.505 556.238H55.495L55.495 552.27H54.505ZM54.505 560.206L54.505 564.175H55.495L55.495 560.206H54.505ZM54.505 568.143L54.505 572.111H55.495L55.495 568.143H54.505ZM54.505 576.08L54.505 580.048H55.495L55.495 576.08H54.505ZM54.505 584.016L54.505 586H55.495L55.495 584.016H54.505Z" fill="#80858E"/>
<path d="M13 40H96" stroke="#80858E" stroke-width="0.99" stroke-linecap="round" stroke-linejoin="round"/>
<path d="M45 86L96 86" stroke="#80858E" stroke-width="0.99" stroke-linecap="round" stroke-linejoin="round"/>
<path d="M351.255 41.8824H167.986C126.781 41.8824 93.9875 75.4559 96.0963 115.48L115.929 570.417C115.929 591.19 403.304 591.19 403.304 570.417L423.137 115.48C425.254 75.4559 392.453 41.8748 351.247 41.8748L351.255 41.8824Z" fill="#C3CAD6"/>
<path d="M274.926 30.4561H245.074V41.5603H274.926V30.4561Z" fill="#C3CAD6"/>
<path d="M272.428 0H247.568C246.188 0 245.074 1.11765 245.074 2.49063V30.4512H274.926V2.49063C274.926 1.11283 273.807 0 272.433 0H272.428Z" fill="#C3CAD6"/>
<path d="M363.846 85.5272H155.403C121.401 85.5272 94.3415 116.295 96.0809 152.966L115.929 570.424C115.929 589.46 403.304 589.46 403.304 570.424L423.153 152.966C424.9 116.295 397.832 85.5272 363.831 85.5272H363.846Z" stroke="#80858E" stroke-width="0.99" stroke-linecap="round" stroke-linejoin="round"/>
<path d="M274.931 74.0944H245.079V85.1986H274.931V74.0944Z" stroke="#80858E" stroke-width="0.99" stroke-linecap="round" stroke-linejoin="round"/>
<path d="M247.042 43.6383H272.964C274.049 43.6383 274.926 44.5199 274.926 45.599V74.0895H245.074V45.599C245.074 44.5151 245.957 43.6383 247.037 43.6383H247.042Z" stroke="#80858E" stroke-width="0.99" stroke-linecap="round" stroke-linejoin="round"/>
<path d="M248.889 51.4137V74.0943" stroke="#80858E" stroke-width="0.99" stroke-linecap="round" stroke-linejoin="round"/>
<path d="M252.062 51.4137V74.0943" stroke="#80858E" stroke-width="0.99" stroke-linecap="round" stroke-linejoin="round"/>
<path d="M255.24 51.4137V74.0943" stroke="#80858E" stroke-width="0.99" stroke-linecap="round" stroke-linejoin="round"/>
<path d="M258.414 51.4137V74.0943" stroke="#80858E" stroke-width="0.99" stroke-linecap="round" stroke-linejoin="round"/>
<path d="M261.592 51.4137V74.0943" stroke="#80858E" stroke-width="0.99" stroke-linecap="round" stroke-linejoin="round"/>
<path d="M264.77 51.4137V74.0943" stroke="#80858E" stroke-width="0.99" stroke-linecap="round" stroke-linejoin="round"/>
<path d="M267.943 51.4137V74.0943" stroke="#80858E" stroke-width="0.99" stroke-linecap="round" stroke-linejoin="round"/>
<path d="M271.121 51.4137V74.0943" stroke="#80858E" stroke-width="0.99" stroke-linecap="round" stroke-linejoin="round"/>
<path d="M121.663 256.846L124.965 361.957" stroke="#80858E" stroke-width="0.99" stroke-linecap="round" stroke-linejoin="round"/>
<path d="M392.622 317.851L397.755 154.542C398.571 128.626 379.5 107.138 355.688 107.138H160.513C136.701 107.138 117.63 128.626 118.446 154.542L121.093 238.649" stroke="#80858E" stroke-width="0.99" stroke-linecap="round" stroke-linejoin="round"/>
<path d="M125.911 391.994L127.404 439.367C127.789 451.576 130.336 463.577 134.97 474.701C147.499 504.784 202.28 558.592 257.554 558.592C312.828 558.592 368.718 504.784 381.247 474.701C385.88 463.577 388.428 451.576 388.812 439.367L392.106 334.526" stroke="#80858E" stroke-width="0.99" stroke-linecap="round" stroke-linejoin="round"/>
<path d="M216.141 295.781V297.1L211.463 310H209.061L213.748 297.695H207.742V295.781H216.141ZM225.975 301.699V304.023C225.975 305.137 225.877 306.087 225.682 306.875C225.493 307.656 225.223 308.291 224.871 308.779C224.526 309.268 224.109 309.626 223.621 309.854C223.139 310.081 222.602 310.195 222.01 310.195C221.541 310.195 221.102 310.124 220.691 309.98C220.281 309.837 219.91 309.613 219.578 309.307C219.253 309.001 218.973 308.607 218.738 308.125C218.51 307.637 218.331 307.054 218.201 306.377C218.077 305.7 218.016 304.915 218.016 304.023V301.699C218.016 300.579 218.113 299.635 218.309 298.867C218.504 298.092 218.777 297.464 219.129 296.982C219.48 296.494 219.897 296.139 220.379 295.918C220.867 295.697 221.408 295.586 222 295.586C222.469 295.586 222.908 295.658 223.318 295.801C223.729 295.938 224.096 296.156 224.422 296.455C224.747 296.755 225.027 297.145 225.262 297.627C225.496 298.102 225.672 298.678 225.789 299.355C225.913 300.026 225.975 300.807 225.975 301.699ZM223.709 304.365V301.338C223.709 300.778 223.683 300.283 223.631 299.854C223.579 299.424 223.507 299.059 223.416 298.76C223.325 298.46 223.208 298.219 223.064 298.037C222.928 297.848 222.768 297.712 222.586 297.627C222.41 297.536 222.215 297.49 222 297.49C221.733 297.49 221.492 297.559 221.277 297.695C221.069 297.832 220.89 298.053 220.74 298.359C220.597 298.659 220.486 299.056 220.408 299.551C220.33 300.039 220.291 300.635 220.291 301.338V304.365C220.291 304.932 220.317 305.43 220.369 305.859C220.421 306.289 220.496 306.66 220.594 306.973C220.691 307.279 220.809 307.529 220.945 307.725C221.082 307.913 221.238 308.053 221.414 308.145C221.596 308.236 221.795 308.281 222.01 308.281C222.283 308.281 222.524 308.21 222.732 308.066C222.947 307.923 223.126 307.699 223.27 307.393C223.413 307.08 223.52 306.673 223.592 306.172C223.67 305.671 223.709 305.068 223.709 304.365ZM235.975 301.699V304.023C235.975 305.137 235.877 306.087 235.682 306.875C235.493 307.656 235.223 308.291 234.871 308.779C234.526 309.268 234.109 309.626 233.621 309.854C233.139 310.081 232.602 310.195 232.01 310.195C231.541 310.195 231.102 310.124 230.691 309.98C230.281 309.837 229.91 309.613 229.578 309.307C229.253 309.001 228.973 308.607 228.738 308.125C228.51 307.637 228.331 307.054 228.201 306.377C228.077 305.7 228.016 304.915 228.016 304.023V301.699C228.016 300.579 228.113 299.635 228.309 298.867C228.504 298.092 228.777 297.464 229.129 296.982C229.48 296.494 229.897 296.139 230.379 295.918C230.867 295.697 231.408 295.586 232 295.586C232.469 295.586 232.908 295.658 233.318 295.801C233.729 295.938 234.096 296.156 234.422 296.455C234.747 296.755 235.027 297.145 235.262 297.627C235.496 298.102 235.672 298.678 235.789 299.355C235.913 300.026 235.975 300.807 235.975 301.699ZM233.709 304.365V301.338C233.709 300.778 233.683 300.283 233.631 299.854C233.579 299.424 233.507 299.059 233.416 298.76C233.325 298.46 233.208 298.219 233.064 298.037C232.928 297.848 232.768 297.712 232.586 297.627C232.41 297.536 232.215 297.49 232 297.49C231.733 297.49 231.492 297.559 231.277 297.695C231.069 297.832 230.89 298.053 230.74 298.359C230.597 298.659 230.486 299.056 230.408 299.551C230.33 300.039 230.291 300.635 230.291 301.338V304.365C230.291 304.932 230.317 305.43 230.369 305.859C230.421 306.289 230.496 306.66 230.594 306.973C230.691 307.279 230.809 307.529 230.945 307.725C231.082 307.913 231.238 308.053 231.414 308.145C231.596 308.236 231.795 308.281 232.01 308.281C232.283 308.281 232.524 308.21 232.732 308.066C232.947 307.923 233.126 307.699 233.27 307.393C233.413 307.08 233.52 306.673 233.592 306.172C233.67 305.671 233.709 305.068 233.709 304.365ZM246.922 302.002V303.926H238.514V302.002H246.922ZM254.861 295.732V310H252.586V298.584L249.754 299.756V297.773L254.588 295.732H254.861ZM267.166 301.699V304.023C267.166 305.137 267.068 306.087 266.873 306.875C266.684 307.656 266.414 308.291 266.062 308.779C265.717 309.268 265.301 309.626 264.812 309.854C264.331 310.081 263.794 310.195 263.201 310.195C262.732 310.195 262.293 310.124 261.883 309.98C261.473 309.837 261.102 309.613 260.77 309.307C260.444 309.001 260.164 308.607 259.93 308.125C259.702 307.637 259.523 307.054 259.393 306.377C259.269 305.7 259.207 304.915 259.207 304.023V301.699C259.207 300.579 259.305 299.635 259.5 298.867C259.695 298.092 259.969 297.464 260.32 296.982C260.672 296.494 261.089 296.139 261.57 295.918C262.059 295.697 262.599 295.586 263.191 295.586C263.66 295.586 264.1 295.658 264.51 295.801C264.92 295.938 265.288 296.156 265.613 296.455C265.939 296.755 266.219 297.145 266.453 297.627C266.688 298.102 266.863 298.678 266.98 299.355C267.104 300.026 267.166 300.807 267.166 301.699ZM264.9 304.365V301.338C264.9 300.778 264.874 300.283 264.822 299.854C264.77 299.424 264.699 299.059 264.607 298.76C264.516 298.46 264.399 298.219 264.256 298.037C264.119 297.848 263.96 297.712 263.777 297.627C263.602 297.536 263.406 297.49 263.191 297.49C262.924 297.49 262.684 297.559 262.469 297.695C262.26 297.832 262.081 298.053 261.932 298.359C261.788 298.659 261.678 299.056 261.6 299.551C261.521 300.039 261.482 300.635 261.482 301.338V304.365C261.482 304.932 261.508 305.43 261.561 305.859C261.613 306.289 261.688 306.66 261.785 306.973C261.883 307.279 262 307.529 262.137 307.725C262.273 307.913 262.43 308.053 262.605 308.145C262.788 308.236 262.986 308.281 263.201 308.281C263.475 308.281 263.715 308.21 263.924 308.066C264.139 307.923 264.318 307.699 264.461 307.393C264.604 307.08 264.712 306.673 264.783 306.172C264.861 305.671 264.9 305.068 264.9 304.365ZM277.166 301.699V304.023C277.166 305.137 277.068 306.087 276.873 306.875C276.684 307.656 276.414 308.291 276.062 308.779C275.717 309.268 275.301 309.626 274.812 309.854C274.331 310.081 273.794 310.195 273.201 310.195C272.732 310.195 272.293 310.124 271.883 309.98C271.473 309.837 271.102 309.613 270.77 309.307C270.444 309.001 270.164 308.607 269.93 308.125C269.702 307.637 269.523 307.054 269.393 306.377C269.269 305.7 269.207 304.915 269.207 304.023V301.699C269.207 300.579 269.305 299.635 269.5 298.867C269.695 298.092 269.969 297.464 270.32 296.982C270.672 296.494 271.089 296.139 271.57 295.918C272.059 295.697 272.599 295.586 273.191 295.586C273.66 295.586 274.1 295.658 274.51 295.801C274.92 295.938 275.288 296.156 275.613 296.455C275.939 296.755 276.219 297.145 276.453 297.627C276.688 298.102 276.863 298.678 276.98 299.355C277.104 300.026 277.166 300.807 277.166 301.699ZM274.9 304.365V301.338C274.9 300.778 274.874 300.283 274.822 299.854C274.77 299.424 274.699 299.059 274.607 298.76C274.516 298.46 274.399 298.219 274.256 298.037C274.119 297.848 273.96 297.712 273.777 297.627C273.602 297.536 273.406 297.49 273.191 297.49C272.924 297.49 272.684 297.559 272.469 297.695C272.26 297.832 272.081 298.053 271.932 298.359C271.788 298.659 271.678 299.056 271.6 299.551C271.521 300.039 271.482 300.635 271.482 301.338V304.365C271.482 304.932 271.508 305.43 271.561 305.859C271.613 306.289 271.688 306.66 271.785 306.973C271.883 307.279 272 307.529 272.137 307.725C272.273 307.913 272.43 308.053 272.605 308.145C272.788 308.236 272.986 308.281 273.201 308.281C273.475 308.281 273.715 308.21 273.924 308.066C274.139 307.923 274.318 307.699 274.461 307.393C274.604 307.08 274.712 306.673 274.783 306.172C274.861 305.671 274.9 305.068 274.9 304.365ZM287.166 301.699V304.023C287.166 305.137 287.068 306.087 286.873 306.875C286.684 307.656 286.414 308.291 286.062 308.779C285.717 309.268 285.301 309.626 284.812 309.854C284.331 310.081 283.794 310.195 283.201 310.195C282.732 310.195 282.293 310.124 281.883 309.98C281.473 309.837 281.102 309.613 280.77 309.307C280.444 309.001 280.164 308.607 279.93 308.125C279.702 307.637 279.523 307.054 279.393 306.377C279.269 305.7 279.207 304.915 279.207 304.023V301.699C279.207 300.579 279.305 299.635 279.5 298.867C279.695 298.092 279.969 297.464 280.32 296.982C280.672 296.494 281.089 296.139 281.57 295.918C282.059 295.697 282.599 295.586 283.191 295.586C283.66 295.586 284.1 295.658 284.51 295.801C284.92 295.938 285.288 296.156 285.613 296.455C285.939 296.755 286.219 297.145 286.453 297.627C286.688 298.102 286.863 298.678 286.98 299.355C287.104 300.026 287.166 300.807 287.166 301.699ZM284.9 304.365V301.338C284.9 300.778 284.874 300.283 284.822 299.854C284.77 299.424 284.699 299.059 284.607 298.76C284.516 298.46 284.399 298.219 284.256 298.037C284.119 297.848 283.96 297.712 283.777 297.627C283.602 297.536 283.406 297.49 283.191 297.49C282.924 297.49 282.684 297.559 282.469 297.695C282.26 297.832 282.081 298.053 281.932 298.359C281.788 298.659 281.678 299.056 281.6 299.551C281.521 300.039 281.482 300.635 281.482 301.338V304.365C281.482 304.932 281.508 305.43 281.561 305.859C281.613 306.289 281.688 306.66 281.785 306.973C281.883 307.279 282 307.529 282.137 307.725C282.273 307.913 282.43 308.053 282.605 308.145C282.788 308.236 282.986 308.281 283.201 308.281C283.475 308.281 283.715 308.21 283.924 308.066C284.139 307.923 284.318 307.699 284.461 307.393C284.604 307.08 284.712 306.673 284.783 306.172C284.861 305.671 284.9 305.068 284.9 304.365ZM296.229 301.582V310H293.953V299.434H296.092L296.229 301.582ZM295.857 304.336H295.086C295.073 303.6 295.138 302.923 295.281 302.305C295.431 301.686 295.652 301.146 295.945 300.684C296.245 300.221 296.619 299.867 297.068 299.619C297.524 299.365 298.048 299.238 298.641 299.238C299.038 299.238 299.402 299.31 299.734 299.453C300.073 299.59 300.366 299.808 300.613 300.107C300.867 300.407 301.062 300.791 301.199 301.26C301.336 301.729 301.404 302.295 301.404 302.959V310H299.129V303.174C299.129 302.666 299.07 302.269 298.953 301.982C298.842 301.689 298.68 301.481 298.465 301.357C298.25 301.234 297.99 301.172 297.684 301.172C297.352 301.172 297.068 301.257 296.834 301.426C296.6 301.589 296.411 301.816 296.268 302.109C296.124 302.396 296.02 302.731 295.955 303.115C295.89 303.493 295.857 303.9 295.857 304.336ZM301.258 303.73L300.193 303.975C300.18 303.33 300.245 302.721 300.389 302.148C300.532 301.576 300.747 301.074 301.033 300.645C301.326 300.208 301.691 299.867 302.127 299.619C302.57 299.365 303.081 299.238 303.66 299.238C304.116 299.238 304.523 299.313 304.881 299.463C305.239 299.606 305.545 299.834 305.799 300.146C306.053 300.459 306.245 300.866 306.375 301.367C306.512 301.862 306.58 302.464 306.58 303.174V310H304.295V303.164C304.295 302.637 304.236 302.23 304.119 301.943C304.008 301.657 303.846 301.458 303.631 301.348C303.416 301.23 303.159 301.172 302.859 301.172C302.599 301.172 302.368 301.24 302.166 301.377C301.971 301.507 301.805 301.689 301.668 301.924C301.531 302.158 301.427 302.432 301.355 302.744C301.29 303.05 301.258 303.379 301.258 303.73ZM311.297 295V310H309.021V295H311.297Z" fill="#353E48"/>
</svg>
