<svg width="166" height="369" viewBox="0 0 166 369" fill="none" xmlns="http://www.w3.org/2000/svg">
<path d="M128.254 38.5255H36.8863C16.3465 38.5255 -0.00915003 50.1604 1.04856 74.4407L7.70593 364.902C7.70593 370.366 158.492 370.366 158.492 364.902L164.092 74.4407C165.142 50.1604 148.794 38.5255 128.254 38.5255Z" fill="#C3CAD6"/>
<path d="M98.4735 28.6573H70.3899V39.1051H98.4735V28.6573Z" fill="#C3CAD6"/>
<path d="M72.9188 0H95.955C97.3518 0 98.484 1.13149 98.484 2.52734V28.6678H70.4004V2.52734C70.4004 1.13149 71.5326 0 72.9294 0H72.9188Z" fill="#C3CAD6"/>
<path d="M146.492 223.886H19.5071C8.91323 223.886 0.485063 232.753 1.02453 243.331L7.20883 363.714C7.20883 369.206 158.791 369.206 158.791 363.714L164.975 243.331C165.514 232.753 157.086 223.886 146.492 223.886Z" stroke="#80858E" stroke-width="0.99" stroke-linecap="round" stroke-linejoin="round"/>
<path d="M97.4746 213.413H69.2402V223.916H97.4746V213.413Z" stroke="#80858E" stroke-width="0.99" stroke-linecap="round" stroke-linejoin="round"/>
<path d="M71.7832 184.605H94.943C96.3472 184.605 97.4855 185.742 97.4855 187.146V213.424H69.2512V187.146C69.2512 185.742 70.3895 184.605 71.7938 184.605H71.7832Z" stroke="#80858E" stroke-width="0.99" stroke-linecap="round" stroke-linejoin="round"/>
<path d="M72.8467 191.961V213.414" stroke="#80858E" stroke-width="0.99" stroke-linecap="round" stroke-linejoin="round"/>
<path d="M75.8464 191.961V213.414" stroke="#80858E" stroke-width="0.99" stroke-linecap="round" stroke-linejoin="round"/>
<path d="M78.8572 191.961V213.414" stroke="#80858E" stroke-width="0.99" stroke-linecap="round" stroke-linejoin="round"/>
<path d="M81.8579 191.961V213.414" stroke="#80858E" stroke-width="0.99" stroke-linecap="round" stroke-linejoin="round"/>
<path d="M84.8577 191.961V213.414" stroke="#80858E" stroke-width="0.99" stroke-linecap="round" stroke-linejoin="round"/>
<path d="M87.8684 191.961V213.414" stroke="#80858E" stroke-width="0.99" stroke-linecap="round" stroke-linejoin="round"/>
<path d="M90.8679 191.961V213.414" stroke="#80858E" stroke-width="0.99" stroke-linecap="round" stroke-linejoin="round"/>
<path d="M93.8682 191.961V213.414" stroke="#80858E" stroke-width="0.99" stroke-linecap="round" stroke-linejoin="round"/>
<path d="M17.2397 281.089L18.1545 303.175" stroke="#80858E" stroke-width="0.99" stroke-linecap="round" stroke-linejoin="round"/>
<path d="M146.883 292.034L148.298 255.253C148.525 248.706 143.271 243.284 136.719 243.284H27.9349C21.3832 243.284 16.1371 248.714 16.356 255.253L17.0831 276.495" stroke="#80858E" stroke-width="0.99" stroke-linecap="round" stroke-linejoin="round"/>
<path d="M18.4124 310.761L18.8189 322.722C18.9284 325.808 19.6242 328.839 20.8986 331.643C24.3465 339.245 53.2196 352.831 82.3194 352.831C109.879 352.831 140.292 339.245 143.74 331.643C145.015 328.831 145.718 325.8 145.82 322.722L146.727 296.245" stroke="#80858E" stroke-width="0.99" stroke-linecap="round" stroke-linejoin="round"/>
<path d="M46.209 291.086V293H38.0254V291.35L41.9023 286.32C42.3255 285.754 42.651 285.266 42.8789 284.855C43.1133 284.439 43.276 284.064 43.3672 283.732C43.4583 283.4 43.5039 283.075 43.5039 282.756C43.5039 282.313 43.4421 281.923 43.3184 281.584C43.2012 281.245 43.0254 280.982 42.791 280.793C42.5566 280.598 42.2702 280.5 41.9316 280.5C41.5085 280.5 41.1602 280.614 40.8867 280.842C40.6133 281.063 40.4115 281.372 40.2812 281.77C40.151 282.16 40.0859 282.609 40.0859 283.117H37.8105C37.8105 282.29 37.9701 281.532 38.2891 280.842C38.6146 280.152 39.0866 279.605 39.7051 279.201C40.3236 278.791 41.0755 278.586 41.9609 278.586C42.7812 278.586 43.4746 278.745 44.041 279.064C44.6139 279.383 45.0469 279.836 45.3398 280.422C45.6393 281.008 45.7891 281.704 45.7891 282.512C45.7891 282.954 45.7272 283.397 45.6035 283.84C45.4863 284.276 45.3203 284.709 45.1055 285.139C44.8906 285.568 44.6302 286.001 44.3242 286.438C44.0247 286.874 43.6927 287.316 43.3281 287.766L40.877 291.086H46.209ZM50.3301 286.408L48.5137 285.939L49.1777 278.781H55.7305V280.822H51.0625L50.7598 284.25C50.9421 284.12 51.1862 283.993 51.4922 283.869C51.7982 283.739 52.1432 283.674 52.5273 283.674C53.1068 283.674 53.6178 283.785 54.0605 284.006C54.5098 284.227 54.8906 284.546 55.2031 284.963C55.5156 285.373 55.75 285.871 55.9062 286.457C56.069 287.043 56.1504 287.707 56.1504 288.449C56.1504 289.107 56.069 289.722 55.9062 290.295C55.7435 290.861 55.4928 291.363 55.1543 291.799C54.8158 292.235 54.3926 292.577 53.8848 292.824C53.3835 293.072 52.7975 293.195 52.127 293.195C51.6191 293.195 51.1341 293.111 50.6719 292.941C50.2096 292.766 49.793 292.505 49.4219 292.16C49.0573 291.815 48.7611 291.392 48.5332 290.891C48.3118 290.383 48.1882 289.8 48.1621 289.143H50.3789C50.4245 289.598 50.5221 289.986 50.6719 290.305C50.8216 290.624 51.0202 290.868 51.2676 291.037C51.515 291.2 51.7982 291.281 52.1172 291.281C52.4167 291.281 52.6771 291.213 52.8984 291.076C53.1198 290.933 53.3021 290.731 53.4453 290.471C53.5885 290.21 53.696 289.904 53.7676 289.553C53.8392 289.195 53.875 288.801 53.875 288.371C53.875 287.961 53.8327 287.587 53.748 287.248C53.6699 286.903 53.5495 286.607 53.3867 286.359C53.224 286.105 53.0189 285.91 52.7715 285.773C52.5306 285.637 52.2474 285.568 51.9219 285.568C51.4857 285.568 51.1602 285.653 50.9453 285.822C50.7305 285.985 50.5254 286.18 50.3301 286.408ZM66.9219 285.002V286.926H58.5137V285.002H66.9219ZM74.8613 278.732V293H72.5859V281.584L69.7539 282.756V280.773L74.5879 278.732H74.8613ZM87.166 284.699V287.023C87.166 288.137 87.0684 289.087 86.873 289.875C86.6842 290.656 86.4141 291.291 86.0625 291.779C85.7174 292.268 85.3008 292.626 84.8125 292.854C84.3307 293.081 83.7936 293.195 83.2012 293.195C82.7324 293.195 82.293 293.124 81.8828 292.98C81.4727 292.837 81.1016 292.613 80.7695 292.307C80.444 292.001 80.1641 291.607 79.9297 291.125C79.7018 290.637 79.5228 290.054 79.3926 289.377C79.2689 288.7 79.207 287.915 79.207 287.023V284.699C79.207 283.579 79.3047 282.635 79.5 281.867C79.6953 281.092 79.9688 280.464 80.3203 279.982C80.6719 279.494 81.0885 279.139 81.5703 278.918C82.0586 278.697 82.599 278.586 83.1914 278.586C83.6602 278.586 84.0996 278.658 84.5098 278.801C84.9199 278.938 85.2878 279.156 85.6133 279.455C85.9388 279.755 86.2188 280.145 86.4531 280.627C86.6875 281.102 86.8633 281.678 86.9805 282.355C87.1042 283.026 87.166 283.807 87.166 284.699ZM84.9004 287.365V284.338C84.9004 283.778 84.8743 283.283 84.8223 282.854C84.7702 282.424 84.6986 282.059 84.6074 281.76C84.5163 281.46 84.3991 281.219 84.2559 281.037C84.1191 280.848 83.9596 280.712 83.7773 280.627C83.6016 280.536 83.4062 280.49 83.1914 280.49C82.9245 280.49 82.6836 280.559 82.4688 280.695C82.2604 280.832 82.0814 281.053 81.9316 281.359C81.7884 281.659 81.6777 282.056 81.5996 282.551C81.5215 283.039 81.4824 283.635 81.4824 284.338V287.365C81.4824 287.932 81.5085 288.43 81.5605 288.859C81.6126 289.289 81.6875 289.66 81.7852 289.973C81.8828 290.279 82 290.529 82.1367 290.725C82.2734 290.913 82.4297 291.053 82.6055 291.145C82.7878 291.236 82.9863 291.281 83.2012 291.281C83.4746 291.281 83.7155 291.21 83.9238 291.066C84.1387 290.923 84.3177 290.699 84.4609 290.393C84.6042 290.08 84.7116 289.673 84.7832 289.172C84.8613 288.671 84.9004 288.068 84.9004 287.365ZM97.166 284.699V287.023C97.166 288.137 97.0684 289.087 96.873 289.875C96.6842 290.656 96.4141 291.291 96.0625 291.779C95.7174 292.268 95.3008 292.626 94.8125 292.854C94.3307 293.081 93.7936 293.195 93.2012 293.195C92.7324 293.195 92.293 293.124 91.8828 292.98C91.4727 292.837 91.1016 292.613 90.7695 292.307C90.444 292.001 90.1641 291.607 89.9297 291.125C89.7018 290.637 89.5228 290.054 89.3926 289.377C89.2689 288.7 89.207 287.915 89.207 287.023V284.699C89.207 283.579 89.3047 282.635 89.5 281.867C89.6953 281.092 89.9688 280.464 90.3203 279.982C90.6719 279.494 91.0885 279.139 91.5703 278.918C92.0586 278.697 92.599 278.586 93.1914 278.586C93.6602 278.586 94.0996 278.658 94.5098 278.801C94.9199 278.938 95.2878 279.156 95.6133 279.455C95.9388 279.755 96.2188 280.145 96.4531 280.627C96.6875 281.102 96.8633 281.678 96.9805 282.355C97.1042 283.026 97.166 283.807 97.166 284.699ZM94.9004 287.365V284.338C94.9004 283.778 94.8743 283.283 94.8223 282.854C94.7702 282.424 94.6986 282.059 94.6074 281.76C94.5163 281.46 94.3991 281.219 94.2559 281.037C94.1191 280.848 93.9596 280.712 93.7773 280.627C93.6016 280.536 93.4062 280.49 93.1914 280.49C92.9245 280.49 92.6836 280.559 92.4688 280.695C92.2604 280.832 92.0814 281.053 91.9316 281.359C91.7884 281.659 91.6777 282.056 91.5996 282.551C91.5215 283.039 91.4824 283.635 91.4824 284.338V287.365C91.4824 287.932 91.5085 288.43 91.5605 288.859C91.6126 289.289 91.6875 289.66 91.7852 289.973C91.8828 290.279 92 290.529 92.1367 290.725C92.2734 290.913 92.4297 291.053 92.6055 291.145C92.7878 291.236 92.9863 291.281 93.2012 291.281C93.4746 291.281 93.7155 291.21 93.9238 291.066C94.1387 290.923 94.3177 290.699 94.4609 290.393C94.6042 290.08 94.7116 289.673 94.7832 289.172C94.8613 288.671 94.9004 288.068 94.9004 287.365ZM109.324 289.846L111.688 282.434H113.66L110.135 293H108.504L104.969 282.434H106.961L109.324 289.846ZM106.336 282.434V293H104.109V282.434H106.336ZM112.312 293V282.434H114.549V293H112.312ZM122.977 282.434V284.357H118.729V282.434H122.977ZM124.783 282.434V293H122.518V282.434H124.783ZM118.172 282.434H120.428L120.174 287.668C120.135 288.443 120.063 289.126 119.959 289.719C119.861 290.305 119.728 290.806 119.559 291.223C119.389 291.639 119.184 291.978 118.943 292.238C118.702 292.499 118.423 292.691 118.104 292.814C117.791 292.938 117.436 293 117.039 293H116.355L116.346 291.027L116.668 290.988C116.863 290.969 117.033 290.907 117.176 290.803C117.319 290.699 117.439 290.546 117.537 290.344C117.635 290.142 117.713 289.885 117.771 289.572C117.837 289.253 117.885 288.879 117.918 288.449C117.957 288.013 117.986 287.512 118.006 286.945L118.172 282.434Z" fill="#353E48"/>
</svg>
