<svg width="276" height="416" viewBox="0 0 276 416" fill="none" xmlns="http://www.w3.org/2000/svg">
<path d="M11 368H93" stroke="#80858E" stroke-width="0.99" stroke-linecap="round" stroke-linejoin="round"/>
<path d="M111.713 391.853C111.519 392.047 111.519 392.36 111.713 392.553L114.863 395.703C115.056 395.897 115.369 395.897 115.563 395.703C115.756 395.51 115.756 395.197 115.563 395.003L112.763 392.203L115.563 389.403C115.756 389.21 115.756 388.896 115.563 388.703C115.369 388.51 115.056 388.51 114.863 388.703L111.713 391.853ZM273.296 392.553C273.489 392.36 273.489 392.047 273.296 391.853L270.145 388.703C269.952 388.51 269.639 388.51 269.445 388.703C269.252 388.896 269.252 389.21 269.445 389.403L272.245 392.203L269.445 395.003C269.252 395.197 269.252 395.51 269.445 395.703C269.639 395.897 269.952 395.897 270.145 395.703L273.296 392.553ZM112.063 392.698H114.074V391.708H112.063V392.698ZM118.096 392.698H122.118V391.708H118.096V392.698ZM126.14 392.698H130.162V391.708H126.14V392.698ZM134.184 392.698H138.206V391.708H134.184V392.698ZM142.228 392.698H146.25V391.708H142.228V392.698ZM150.272 392.698H154.294V391.708H150.272V392.698ZM158.316 392.698H162.339V391.708H158.316V392.698ZM166.361 392.698H170.383V391.708H166.361V392.698ZM174.405 392.698H178.427V391.708H174.405V392.698ZM182.449 392.698H186.471V391.708H182.449V392.698ZM190.493 392.698H194.515V391.708H190.493V392.698ZM198.537 392.698H202.559V391.708H198.537V392.698ZM206.581 392.698H210.603V391.708H206.581V392.698ZM214.625 392.698H218.648V391.708H214.625V392.698ZM222.67 392.698H226.692V391.708H222.67V392.698ZM230.714 392.698H234.736V391.708H230.714V392.698ZM238.758 392.698H242.78V391.708H238.758V392.698ZM246.802 392.698H250.824V391.708H246.802V392.698ZM254.846 392.698H258.868V391.708H254.846V392.698ZM262.89 392.698H266.912V391.708H262.89V392.698ZM270.934 392.698H272.945V391.708H270.934V392.698Z" fill="#80858E"/>
<path d="M111.009 377V407.418" stroke="#80858E" stroke-width="0.99" stroke-linecap="round" stroke-linejoin="round"/>
<path d="M274 377V407.418" stroke="#80858E" stroke-width="0.99" stroke-linecap="round" stroke-linejoin="round"/>
<path d="M210.546 413.535L213.146 406.014H214.658L211.095 415.748H209.998L206.444 406.014H207.956L210.546 413.535ZM207.497 406.014V415.748H205.914V406.014H207.497ZM213.542 415.748V406.014H215.134V415.748H213.542Z" fill="#80858E"/>
<path d="M198.635 413.535L201.235 406.014H202.746L199.183 415.748H198.086L194.533 406.014H196.044L198.635 413.535ZM195.585 406.014V415.748H194.002V406.014H195.585ZM201.63 415.748V406.014H203.223V415.748H201.63Z" fill="#80858E"/>
<path d="M187.876 411.34V412.707H179.87V411.727L184.736 402.65H186.014L184.736 405.277L181.642 411.34H187.876ZM186.419 402.65V415.748H184.826V402.65H186.419Z" fill="#80858E"/>
<path d="M178.512 402.65V403.585L174.005 415.748H172.331L176.838 404.017H171V402.65H178.512Z" fill="#80858E"/>
<path d="M16 40H99" stroke="#80858E" stroke-width="0.99" stroke-linecap="round" stroke-linejoin="round"/>
<path d="M48 226L99 226" stroke="#80858E" stroke-width="0.99" stroke-linecap="round" stroke-linejoin="round"/>
<path d="M238.254 38.5255H146.886C126.347 38.5255 109.991 50.1604 111.049 74.4407L117.706 364.902C117.706 370.366 268.492 370.366 268.492 364.902L274.092 74.4407C275.142 50.1604 258.794 38.5255 238.254 38.5255Z" fill="#C3CAD6"/>
<path d="M208.473 28.6573H180.39V39.1051H208.473V28.6573Z" fill="#C3CAD6"/>
<path d="M182.919 0H205.955C207.352 0 208.484 1.13149 208.484 2.52734V28.6678H180.4V2.52734C180.4 1.13149 181.533 0 182.929 0H182.919Z" fill="#C3CAD6"/>
<path d="M256.492 223.886H129.507C118.913 223.886 110.485 232.753 111.025 243.331L117.209 363.714C117.209 369.206 268.791 369.206 268.791 363.714L274.975 243.331C275.514 232.753 267.086 223.886 256.492 223.886Z" stroke="#80858E" stroke-width="0.99" stroke-linecap="round" stroke-linejoin="round"/>
<path d="M207.475 213.413H179.24V223.916H207.475V213.413Z" stroke="#80858E" stroke-width="0.99" stroke-linecap="round" stroke-linejoin="round"/>
<path d="M181.783 184.605H204.943C206.347 184.605 207.486 185.742 207.486 187.146V213.424H179.251V187.146C179.251 185.742 180.39 184.605 181.794 184.605H181.783Z" stroke="#80858E" stroke-width="0.99" stroke-linecap="round" stroke-linejoin="round"/>
<path d="M182.847 191.961V213.414" stroke="#80858E" stroke-width="0.99" stroke-linecap="round" stroke-linejoin="round"/>
<path d="M185.847 191.961V213.414" stroke="#80858E" stroke-width="0.99" stroke-linecap="round" stroke-linejoin="round"/>
<path d="M188.857 191.961V213.414" stroke="#80858E" stroke-width="0.99" stroke-linecap="round" stroke-linejoin="round"/>
<path d="M191.858 191.961V213.414" stroke="#80858E" stroke-width="0.99" stroke-linecap="round" stroke-linejoin="round"/>
<path d="M194.858 191.961V213.414" stroke="#80858E" stroke-width="0.99" stroke-linecap="round" stroke-linejoin="round"/>
<path d="M197.868 191.961V213.414" stroke="#80858E" stroke-width="0.99" stroke-linecap="round" stroke-linejoin="round"/>
<path d="M200.868 191.961V213.414" stroke="#80858E" stroke-width="0.99" stroke-linecap="round" stroke-linejoin="round"/>
<path d="M203.868 191.961V213.414" stroke="#80858E" stroke-width="0.99" stroke-linecap="round" stroke-linejoin="round"/>
<path d="M127.24 281.089L128.154 303.175" stroke="#80858E" stroke-width="0.99" stroke-linecap="round" stroke-linejoin="round"/>
<path d="M256.883 292.034L258.298 255.253C258.525 248.706 253.271 243.284 246.719 243.284H137.935C131.383 243.284 126.137 248.714 126.356 255.253L127.083 276.495" stroke="#80858E" stroke-width="0.99" stroke-linecap="round" stroke-linejoin="round"/>
<path d="M128.412 310.761L128.819 322.722C128.928 325.808 129.624 328.839 130.899 331.643C134.346 339.245 163.22 352.831 192.319 352.831C219.879 352.831 250.292 339.245 253.74 331.643C255.015 328.831 255.718 325.8 255.82 322.722L256.727 296.245" stroke="#80858E" stroke-width="0.99" stroke-linecap="round" stroke-linejoin="round"/>
<path d="M156.209 291.086V293H148.025V291.35L151.902 286.32C152.326 285.754 152.651 285.266 152.879 284.855C153.113 284.439 153.276 284.064 153.367 283.732C153.458 283.4 153.504 283.075 153.504 282.756C153.504 282.313 153.442 281.923 153.318 281.584C153.201 281.245 153.025 280.982 152.791 280.793C152.557 280.598 152.27 280.5 151.932 280.5C151.508 280.5 151.16 280.614 150.887 280.842C150.613 281.063 150.411 281.372 150.281 281.77C150.151 282.16 150.086 282.609 150.086 283.117H147.811C147.811 282.29 147.97 281.532 148.289 280.842C148.615 280.152 149.087 279.605 149.705 279.201C150.324 278.791 151.076 278.586 151.961 278.586C152.781 278.586 153.475 278.745 154.041 279.064C154.614 279.383 155.047 279.836 155.34 280.422C155.639 281.008 155.789 281.704 155.789 282.512C155.789 282.954 155.727 283.397 155.604 283.84C155.486 284.276 155.32 284.709 155.105 285.139C154.891 285.568 154.63 286.001 154.324 286.438C154.025 286.874 153.693 287.316 153.328 287.766L150.877 291.086H156.209ZM160.33 286.408L158.514 285.939L159.178 278.781H165.73V280.822H161.062L160.76 284.25C160.942 284.12 161.186 283.993 161.492 283.869C161.798 283.739 162.143 283.674 162.527 283.674C163.107 283.674 163.618 283.785 164.061 284.006C164.51 284.227 164.891 284.546 165.203 284.963C165.516 285.373 165.75 285.871 165.906 286.457C166.069 287.043 166.15 287.707 166.15 288.449C166.15 289.107 166.069 289.722 165.906 290.295C165.743 290.861 165.493 291.363 165.154 291.799C164.816 292.235 164.393 292.577 163.885 292.824C163.383 293.072 162.798 293.195 162.127 293.195C161.619 293.195 161.134 293.111 160.672 292.941C160.21 292.766 159.793 292.505 159.422 292.16C159.057 291.815 158.761 291.392 158.533 290.891C158.312 290.383 158.188 289.8 158.162 289.143H160.379C160.424 289.598 160.522 289.986 160.672 290.305C160.822 290.624 161.02 290.868 161.268 291.037C161.515 291.2 161.798 291.281 162.117 291.281C162.417 291.281 162.677 291.213 162.898 291.076C163.12 290.933 163.302 290.731 163.445 290.471C163.589 290.21 163.696 289.904 163.768 289.553C163.839 289.195 163.875 288.801 163.875 288.371C163.875 287.961 163.833 287.587 163.748 287.248C163.67 286.903 163.549 286.607 163.387 286.359C163.224 286.105 163.019 285.91 162.771 285.773C162.531 285.637 162.247 285.568 161.922 285.568C161.486 285.568 161.16 285.653 160.945 285.822C160.73 285.985 160.525 286.18 160.33 286.408ZM176.922 285.002V286.926H168.514V285.002H176.922ZM184.861 278.732V293H182.586V281.584L179.754 282.756V280.773L184.588 278.732H184.861ZM197.166 284.699V287.023C197.166 288.137 197.068 289.087 196.873 289.875C196.684 290.656 196.414 291.291 196.062 291.779C195.717 292.268 195.301 292.626 194.812 292.854C194.331 293.081 193.794 293.195 193.201 293.195C192.732 293.195 192.293 293.124 191.883 292.98C191.473 292.837 191.102 292.613 190.77 292.307C190.444 292.001 190.164 291.607 189.93 291.125C189.702 290.637 189.523 290.054 189.393 289.377C189.269 288.7 189.207 287.915 189.207 287.023V284.699C189.207 283.579 189.305 282.635 189.5 281.867C189.695 281.092 189.969 280.464 190.32 279.982C190.672 279.494 191.089 279.139 191.57 278.918C192.059 278.697 192.599 278.586 193.191 278.586C193.66 278.586 194.1 278.658 194.51 278.801C194.92 278.938 195.288 279.156 195.613 279.455C195.939 279.755 196.219 280.145 196.453 280.627C196.688 281.102 196.863 281.678 196.98 282.355C197.104 283.026 197.166 283.807 197.166 284.699ZM194.9 287.365V284.338C194.9 283.778 194.874 283.283 194.822 282.854C194.77 282.424 194.699 282.059 194.607 281.76C194.516 281.46 194.399 281.219 194.256 281.037C194.119 280.848 193.96 280.712 193.777 280.627C193.602 280.536 193.406 280.49 193.191 280.49C192.924 280.49 192.684 280.559 192.469 280.695C192.26 280.832 192.081 281.053 191.932 281.359C191.788 281.659 191.678 282.056 191.6 282.551C191.521 283.039 191.482 283.635 191.482 284.338V287.365C191.482 287.932 191.508 288.43 191.561 288.859C191.613 289.289 191.688 289.66 191.785 289.973C191.883 290.279 192 290.529 192.137 290.725C192.273 290.913 192.43 291.053 192.605 291.145C192.788 291.236 192.986 291.281 193.201 291.281C193.475 291.281 193.715 291.21 193.924 291.066C194.139 290.923 194.318 290.699 194.461 290.393C194.604 290.08 194.712 289.673 194.783 289.172C194.861 288.671 194.9 288.068 194.9 287.365ZM207.166 284.699V287.023C207.166 288.137 207.068 289.087 206.873 289.875C206.684 290.656 206.414 291.291 206.062 291.779C205.717 292.268 205.301 292.626 204.812 292.854C204.331 293.081 203.794 293.195 203.201 293.195C202.732 293.195 202.293 293.124 201.883 292.98C201.473 292.837 201.102 292.613 200.77 292.307C200.444 292.001 200.164 291.607 199.93 291.125C199.702 290.637 199.523 290.054 199.393 289.377C199.269 288.7 199.207 287.915 199.207 287.023V284.699C199.207 283.579 199.305 282.635 199.5 281.867C199.695 281.092 199.969 280.464 200.32 279.982C200.672 279.494 201.089 279.139 201.57 278.918C202.059 278.697 202.599 278.586 203.191 278.586C203.66 278.586 204.1 278.658 204.51 278.801C204.92 278.938 205.288 279.156 205.613 279.455C205.939 279.755 206.219 280.145 206.453 280.627C206.688 281.102 206.863 281.678 206.98 282.355C207.104 283.026 207.166 283.807 207.166 284.699ZM204.9 287.365V284.338C204.9 283.778 204.874 283.283 204.822 282.854C204.77 282.424 204.699 282.059 204.607 281.76C204.516 281.46 204.399 281.219 204.256 281.037C204.119 280.848 203.96 280.712 203.777 280.627C203.602 280.536 203.406 280.49 203.191 280.49C202.924 280.49 202.684 280.559 202.469 280.695C202.26 280.832 202.081 281.053 201.932 281.359C201.788 281.659 201.678 282.056 201.6 282.551C201.521 283.039 201.482 283.635 201.482 284.338V287.365C201.482 287.932 201.508 288.43 201.561 288.859C201.613 289.289 201.688 289.66 201.785 289.973C201.883 290.279 202 290.529 202.137 290.725C202.273 290.913 202.43 291.053 202.605 291.145C202.788 291.236 202.986 291.281 203.201 291.281C203.475 291.281 203.715 291.21 203.924 291.066C204.139 290.923 204.318 290.699 204.461 290.393C204.604 290.08 204.712 289.673 204.783 289.172C204.861 288.671 204.9 288.068 204.9 287.365ZM216.229 284.582V293H213.953V282.434H216.092L216.229 284.582ZM215.857 287.336H215.086C215.073 286.6 215.138 285.923 215.281 285.305C215.431 284.686 215.652 284.146 215.945 283.684C216.245 283.221 216.619 282.867 217.068 282.619C217.524 282.365 218.048 282.238 218.641 282.238C219.038 282.238 219.402 282.31 219.734 282.453C220.073 282.59 220.366 282.808 220.613 283.107C220.867 283.407 221.062 283.791 221.199 284.26C221.336 284.729 221.404 285.295 221.404 285.959V293H219.129V286.174C219.129 285.666 219.07 285.269 218.953 284.982C218.842 284.689 218.68 284.481 218.465 284.357C218.25 284.234 217.99 284.172 217.684 284.172C217.352 284.172 217.068 284.257 216.834 284.426C216.6 284.589 216.411 284.816 216.268 285.109C216.124 285.396 216.02 285.731 215.955 286.115C215.89 286.493 215.857 286.9 215.857 287.336ZM221.258 286.73L220.193 286.975C220.18 286.33 220.245 285.721 220.389 285.148C220.532 284.576 220.747 284.074 221.033 283.645C221.326 283.208 221.691 282.867 222.127 282.619C222.57 282.365 223.081 282.238 223.66 282.238C224.116 282.238 224.523 282.313 224.881 282.463C225.239 282.606 225.545 282.834 225.799 283.146C226.053 283.459 226.245 283.866 226.375 284.367C226.512 284.862 226.58 285.464 226.58 286.174V293H224.295V286.164C224.295 285.637 224.236 285.23 224.119 284.943C224.008 284.657 223.846 284.458 223.631 284.348C223.416 284.23 223.159 284.172 222.859 284.172C222.599 284.172 222.368 284.24 222.166 284.377C221.971 284.507 221.805 284.689 221.668 284.924C221.531 285.158 221.427 285.432 221.355 285.744C221.29 286.05 221.258 286.379 221.258 286.73ZM231.297 278V293H229.021V278H231.297Z" fill="#353E48"/>
<path d="M22.65 368.35C22.8433 368.543 23.1567 368.543 23.35 368.35L26.5002 365.2C26.6935 365.006 26.6935 364.693 26.5002 364.5C26.3069 364.306 25.9934 364.306 25.8001 364.5L23 367.3L20.1998 364.5C20.0065 364.306 19.6931 364.306 19.4998 364.5C19.3065 364.693 19.3065 365.006 19.4998 365.2L22.65 368.35ZM23.35 39.65C23.1567 39.4567 22.8433 39.4567 22.65 39.65L19.4998 42.8001C19.3065 42.9935 19.3065 43.3069 19.4998 43.5002C19.6931 43.6935 20.0065 43.6935 20.1999 43.5002L23 40.7L25.8001 43.5002C25.9935 43.6935 26.3069 43.6935 26.5002 43.5002C26.6935 43.3069 26.6935 42.9935 26.5002 42.8001L23.35 39.65ZM22.505 40L22.505 42L23.495 42L23.495 40L22.505 40ZM22.505 46L22.505 50L23.495 50L23.495 46L22.505 46ZM22.505 54L22.505 58L23.495 58L23.495 54L22.505 54ZM22.505 62L22.505 66L23.495 66L23.495 62L22.505 62ZM22.505 70L22.505 74L23.495 74L23.495 70L22.505 70ZM22.505 78L22.505 82L23.495 82L23.495 78L22.505 78ZM22.505 86L22.505 90L23.495 90L23.495 86L22.505 86ZM22.505 94L22.505 98L23.495 98L23.495 94L22.505 94ZM22.505 102L22.505 106L23.495 106L23.495 102L22.505 102ZM22.505 110L22.505 114L23.495 114L23.495 110L22.505 110ZM22.505 118L22.505 122L23.495 122L23.495 118L22.505 118ZM22.505 126L22.505 130L23.495 130L23.495 126L22.505 126ZM22.505 134L22.505 138L23.495 138L23.495 134L22.505 134ZM22.505 142L22.505 146L23.495 146L23.495 142L22.505 142ZM22.505 150L22.505 154L23.495 154L23.495 150L22.505 150ZM22.505 158L22.505 162L23.495 162L23.495 158L22.505 158ZM22.505 166L22.505 170L23.495 170L23.495 166L22.505 166ZM22.505 174L22.505 178L23.495 178L23.495 174L22.505 174ZM22.505 182L22.505 186L23.495 186L23.495 182L22.505 182ZM22.505 190L22.505 194L23.495 194L23.495 190L22.505 190ZM22.505 198L22.505 202L23.495 202L23.495 198L22.505 198ZM22.505 206L22.505 210L23.495 210L23.495 206L22.505 206ZM22.505 214L22.505 218L23.495 218L23.495 214L22.505 214ZM22.505 222L22.505 226L23.495 226L23.495 222L22.505 222ZM22.505 230L22.505 234L23.495 234L23.495 230L22.505 230ZM22.505 238L22.505 242L23.495 242L23.495 238L22.505 238ZM22.505 246L22.505 250L23.495 250L23.495 246L22.505 246ZM22.505 254L22.505 258L23.495 258L23.495 254L22.505 254ZM22.505 262L22.505 266L23.495 266L23.495 262L22.505 262ZM22.505 270L22.505 274L23.495 274L23.495 270L22.505 270ZM22.505 278L22.505 282L23.495 282L23.495 278L22.505 278ZM22.505 286L22.505 290L23.495 290L23.495 286L22.505 286ZM22.505 294L22.505 298L23.495 298L23.495 294L22.505 294ZM22.505 302L22.505 306L23.495 306L23.495 302L22.505 302ZM22.505 310L22.505 314L23.495 314L23.495 310L22.505 310ZM22.505 318L22.505 322L23.495 322L23.495 318L22.505 318ZM22.505 326L22.505 330L23.495 330L23.495 326L22.505 326ZM22.505 334L22.505 338L23.495 338L23.495 334L22.505 334ZM22.505 342L22.505 346L23.495 346L23.495 342L22.505 342ZM22.505 350L22.505 354L23.495 354L23.495 350L22.505 350ZM22.505 358L22.505 362L23.495 362L23.495 358L22.505 358ZM22.505 366L22.505 368L23.495 368L23.495 366L22.505 366Z" fill="#80858E"/>
<path d="M57.65 368.35C57.8433 368.543 58.1567 368.543 58.35 368.35L61.5002 365.2C61.6935 365.006 61.6935 364.693 61.5002 364.5C61.3069 364.306 60.9935 364.306 60.8001 364.5L58 367.3L55.1999 364.5C55.0065 364.306 54.6931 364.306 54.4998 364.5C54.3065 364.693 54.3065 365.006 54.4998 365.2L57.65 368.35ZM58.35 225.65C58.1567 225.457 57.8433 225.457 57.65 225.65L54.4998 228.8C54.3065 228.993 54.3065 229.307 54.4998 229.5C54.6931 229.693 55.0065 229.693 55.1999 229.5L58 226.7L60.8001 229.5C60.9935 229.693 61.3069 229.693 61.5002 229.5C61.6935 229.307 61.6935 228.993 61.5002 228.8L58.35 225.65ZM57.505 226V227.972H58.495V226H57.505ZM57.505 231.917V235.861H58.495V231.917H57.505ZM57.505 239.806V243.75H58.495V239.806H57.505ZM57.505 247.694V251.639H58.495V247.694H57.505ZM57.505 255.583V259.528H58.495V255.583H57.505ZM57.505 263.472V267.417H58.495V263.472H57.505ZM57.505 271.361V275.305H58.495V271.361H57.505ZM57.505 279.25V283.194H58.495V279.25H57.505ZM57.505 287.139V291.083H58.495V287.139H57.505ZM57.505 295.028V298.972H58.495V295.028H57.505ZM57.505 302.917V306.861H58.495V302.917H57.505ZM57.505 310.805V314.75H58.495V310.805H57.505ZM57.505 318.694V322.639H58.495V318.694H57.505ZM57.505 326.583V330.528H58.495V326.583H57.505ZM57.505 334.472V338.417H58.495V334.472H57.505ZM57.505 342.361V346.305H58.495V342.361H57.505ZM57.505 350.25V354.194H58.495V350.25H57.505ZM57.505 358.139V362.083H58.495V358.139H57.505ZM57.505 366.028V368H58.495V366.028H57.505Z" fill="#80858E"/>
<path d="M45.903 279.588L38.3824 276.988L38.3824 275.477L48.116 279.039L48.116 280.137L38.3824 283.69L38.3824 282.179L45.903 279.588ZM38.3824 282.638L48.116 282.638L48.116 284.221L38.3824 284.221L38.3824 282.638ZM48.116 276.592L38.3824 276.592L38.3824 275L48.116 275L48.116 276.592Z" fill="#80858E"/>
<path d="M45.903 291.498L38.3824 288.899L38.3824 287.387L48.116 290.95L48.116 292.047L38.3824 295.601L38.3824 294.089L45.903 291.498ZM38.3824 294.548L48.116 294.548L48.116 296.131L38.3824 296.131L38.3824 294.548ZM48.116 288.503L38.3824 288.503L38.3824 286.911L48.116 286.911L48.116 288.503Z" fill="#80858E"/>
<path d="M41.8822 307.826L41.5403 309.094L35.0183 308.537L35.0183 302.833L36.5566 302.833L36.5566 307.196L40.119 307.502C39.981 307.298 39.8521 307.052 39.7321 306.765C39.6122 306.477 39.5522 306.141 39.5522 305.757C39.5522 305.241 39.6572 304.782 39.8671 304.381C40.071 303.973 40.3649 303.628 40.7487 303.346C41.1325 303.064 41.5943 302.848 42.134 302.698C42.6738 302.548 43.2765 302.473 43.9422 302.473C44.5719 302.473 45.1507 302.548 45.6784 302.698C46.2062 302.842 46.668 303.064 47.0638 303.364C47.4536 303.658 47.7565 304.03 47.9724 304.48C48.1883 304.923 48.2962 305.442 48.2962 306.036C48.2962 306.48 48.2243 306.899 48.0803 307.295C47.9304 307.691 47.7055 308.048 47.4056 308.366C47.0998 308.678 46.7219 308.933 46.2722 309.13C45.8164 309.328 45.2826 309.451 44.6709 309.499L44.6709 307.997C45.1627 307.937 45.5765 307.823 45.9123 307.655C46.2482 307.481 46.503 307.259 46.677 306.989C46.8449 306.714 46.9289 306.396 46.9289 306.036C46.9289 305.73 46.8599 305.454 46.7219 305.208C46.584 304.962 46.3861 304.755 46.1282 304.588C45.8703 304.42 45.5585 304.291 45.1926 304.201C44.8268 304.111 44.416 304.066 43.9602 304.066C43.5464 304.066 43.1626 304.111 42.8087 304.201C42.4549 304.291 42.146 304.426 41.8822 304.606C41.6183 304.785 41.4144 305.004 41.2704 305.262C41.1205 305.514 41.0455 305.808 41.0455 306.144C41.0455 306.594 41.1205 306.926 41.2704 307.142C41.4204 307.352 41.6243 307.58 41.8822 307.826Z" fill="#80858E"/>
<path d="M35 313.43L35 313.313L36.4124 313.313L36.4124 313.43C36.4124 314.186 36.5563 314.807 36.8442 315.293C37.126 315.772 37.5069 316.147 37.9866 316.417C38.4604 316.681 38.9942 316.864 39.5879 316.966C40.1816 317.068 40.7843 317.119 41.3961 317.119L43.3212 317.119C43.9029 317.119 44.4187 317.065 44.8685 316.957C45.3123 316.843 45.6871 316.696 45.993 316.516C46.2988 316.33 46.5297 316.123 46.6856 315.895C46.8416 315.661 46.9195 315.424 46.9195 315.185C46.9195 314.879 46.8476 314.609 46.7036 314.375C46.5537 314.135 46.3468 313.937 46.0829 313.781C45.813 313.619 45.4952 313.496 45.1294 313.412C44.7635 313.328 44.3617 313.286 43.9239 313.286C43.5341 313.286 43.1593 313.325 42.7994 313.403C42.4336 313.475 42.1097 313.586 41.8279 313.736C41.54 313.886 41.3151 314.078 41.1532 314.312C40.9853 314.54 40.9013 314.813 40.9013 315.131C40.9013 315.49 41.0152 315.826 41.2431 316.138C41.465 316.444 41.7589 316.696 42.1247 316.894C42.4846 317.092 42.8774 317.209 43.3032 317.245L43.2942 318.063C42.6225 317.979 42.0498 317.838 41.576 317.64C41.0962 317.443 40.7064 317.203 40.4065 316.921C40.1007 316.633 39.8788 316.315 39.7408 315.967C39.5969 315.619 39.5249 315.254 39.5249 314.87C39.5249 314.312 39.6479 313.835 39.8938 313.439C40.1396 313.038 40.4695 312.711 40.8833 312.459C41.2911 312.201 41.7529 312.012 42.2687 311.892C42.7784 311.772 43.3032 311.712 43.8429 311.712C44.4607 311.712 45.0394 311.787 45.5791 311.937C46.1189 312.081 46.5927 312.297 47.0005 312.585C47.4083 312.873 47.7262 313.235 47.9541 313.673C48.182 314.105 48.2959 314.609 48.2959 315.185C48.2959 315.796 48.152 316.324 47.8641 316.768C47.5702 317.212 47.1804 317.58 46.6946 317.874C46.2089 318.162 45.6691 318.375 45.0754 318.513C44.4817 318.651 43.8789 318.72 43.2672 318.72L42.4846 318.72C41.561 318.72 40.6554 318.654 39.7678 318.522C38.8802 318.39 38.0766 318.141 37.3569 317.775C36.6372 317.404 36.0645 316.87 35.6387 316.174C35.2129 315.472 35 314.558 35 313.43Z" fill="#80858E"/>
<path d="M11.0649 182.588L3.54431 179.988L3.54431 178.477L13.2778 182.039L13.2778 183.137L3.54431 186.69L3.54431 185.179L11.0649 182.588ZM3.54431 185.638L13.2778 185.638L13.2778 187.221L3.54431 187.221L3.54431 185.638ZM13.2778 179.592L3.54431 179.592L3.54431 178L13.2778 178L13.2778 179.592Z" fill="#80858E"/>
<path d="M11.0649 194.498L3.54431 191.899L3.54431 190.387L13.2778 193.95L13.2778 195.047L3.54431 198.601L3.54431 197.089L11.0649 194.498ZM3.54431 197.548L13.2778 197.548L13.2778 199.131L3.54431 199.131L3.54431 197.548ZM13.2778 191.503L3.54431 191.503L3.54431 189.911L13.2778 189.911L13.2778 191.503Z" fill="#80858E"/>
<path d="M5.68539 205.752L7.68248 205.752C8.75598 205.752 9.66157 205.836 10.3992 206.004C11.1369 206.166 11.7306 206.4 12.1804 206.706C12.6302 207.012 12.9571 207.381 13.161 207.812C13.3589 208.238 13.4578 208.718 13.4578 209.252C13.4578 209.672 13.3949 210.064 13.2689 210.43C13.143 210.79 12.9421 211.114 12.6662 211.402C12.3843 211.69 12.0185 211.936 11.5687 212.139C11.1189 212.343 10.5732 212.499 9.93145 212.607C9.28974 212.715 8.54008 212.769 7.68248 212.769L5.68539 212.769C4.61189 212.769 3.7123 212.685 2.98663 212.517C2.26096 212.349 1.67923 212.112 1.24143 211.807C0.797634 211.495 0.47978 211.126 0.287868 210.7C0.0959559 210.268 -1.30288e-07 209.789 -1.53357e-07 209.261C-1.71969e-07 208.835 0.0629709 208.442 0.188913 208.082C0.308858 207.716 0.503769 207.393 0.773645 207.111C1.03752 206.823 1.39136 206.577 1.83516 206.373C2.27296 206.169 2.80971 206.016 3.44542 205.914C4.08113 205.806 4.82779 205.752 5.68539 205.752ZM7.95235 207.336L5.40652 207.336C4.81879 207.336 4.30303 207.363 3.85923 207.417C3.40944 207.471 3.02561 207.552 2.70776 207.66C2.3899 207.761 2.13202 207.89 1.93411 208.046C1.7362 208.202 1.59227 208.382 1.50231 208.586C1.40636 208.79 1.35838 209.015 1.35838 209.261C1.35838 209.567 1.43334 209.84 1.58327 210.079C1.72721 210.313 1.9581 210.514 2.27596 210.682C2.59381 210.844 3.01062 210.967 3.52638 211.051C4.04215 211.135 4.66886 211.177 5.40652 211.177L7.95235 211.177C8.54008 211.177 9.05885 211.15 9.50864 211.096C9.95843 211.036 10.3483 210.955 10.6781 210.853C11.002 210.745 11.2688 210.613 11.4787 210.457C11.6886 210.301 11.8446 210.121 11.9465 209.917C12.0425 209.714 12.0905 209.492 12.0905 209.252C12.0905 208.934 12.0125 208.658 11.8566 208.424C11.7006 208.184 11.4577 207.983 11.1279 207.821C10.7921 207.66 10.3632 207.54 9.84149 207.462C9.31373 207.378 8.68402 207.336 7.95235 207.336Z" fill="#80858E"/>
<path d="M7.04452 219.93L6.70267 221.198L0.180664 220.64L0.180664 214.937L1.71896 214.937L1.71896 219.3L5.28133 219.606C5.14339 219.402 5.01445 219.156 4.8945 218.868C4.77456 218.58 4.71459 218.245 4.71459 217.861C4.71459 217.345 4.81954 216.886 5.02944 216.484C5.23335 216.077 5.52721 215.732 5.91104 215.45C6.29486 215.168 6.75665 214.952 7.2964 214.802C7.83615 214.652 8.43888 214.577 9.10457 214.577C9.73428 214.577 10.313 214.652 10.8408 214.802C11.3685 214.946 11.8303 215.168 12.2261 215.468C12.616 215.762 12.9188 216.134 13.1347 216.583C13.3506 217.027 13.4586 217.546 13.4586 218.14C13.4586 218.583 13.3866 219.003 13.2427 219.399C13.0927 219.795 12.8678 220.152 12.568 220.47C12.2621 220.781 11.8843 221.036 11.4345 221.234C10.9787 221.432 10.445 221.555 9.83324 221.603L9.83324 220.101C10.325 220.041 10.7388 219.927 11.0747 219.759C11.4105 219.585 11.6654 219.363 11.8393 219.093C12.0072 218.817 12.0912 218.499 12.0912 218.14C12.0912 217.834 12.0222 217.558 11.8843 217.312C11.7464 217.066 11.5485 216.859 11.2906 216.691C11.0327 216.523 10.7208 216.394 10.355 216.304C9.98917 216.214 9.57836 216.17 9.12256 216.17C8.70875 216.17 8.32493 216.214 7.97109 216.304C7.61725 216.394 7.3084 216.529 7.04452 216.709C6.78064 216.889 6.57673 217.108 6.4328 217.366C6.28287 217.618 6.2079 217.912 6.2079 218.248C6.2079 218.697 6.28287 219.03 6.4328 219.246C6.58273 219.456 6.78664 219.684 7.04452 219.93Z" fill="#80858E"/>
<path d="M0.108032 226.218L13.278 226.218L13.278 227.81L2.18608 227.81L3.40952 230.563L1.90721 230.563L0.108032 226.461L0.108032 226.218Z" fill="#80858E"/>
</svg>
