<svg width="329" height="586" viewBox="0 0 329 586" fill="none" xmlns="http://www.w3.org/2000/svg">
<path d="M256.255 41.8824H72.9862C31.7809 41.8824 -1.01245 75.4559 1.0963 115.48L20.9293 570.417C20.9293 591.19 308.304 591.19 308.304 570.417L328.137 115.48C330.254 75.4559 297.453 41.8748 256.247 41.8748L256.255 41.8824Z" fill="#C3CAD6"/>
<path d="M179.926 30.4561H150.074V41.5603H179.926V30.4561Z" fill="#C3CAD6"/>
<path d="M177.428 0H152.567C151.188 0 150.074 1.11765 150.074 2.49063V30.4512H179.926V2.49063C179.926 1.11283 178.807 0 177.433 0H177.428Z" fill="#C3CAD6"/>
<path d="M268.846 85.5272H60.4029C26.4013 85.5272 -0.658471 116.295 1.08086 152.966L20.9293 570.424C20.9293 589.46 308.304 589.46 308.304 570.424L328.153 152.966C329.9 116.295 302.832 85.5272 268.831 85.5272H268.846Z" stroke="#80858E" stroke-width="0.99" stroke-linecap="round" stroke-linejoin="round"/>
<path d="M179.931 74.0944H150.079V85.1986H179.931V74.0944Z" stroke="#80858E" stroke-width="0.99" stroke-linecap="round" stroke-linejoin="round"/>
<path d="M152.042 43.6383H177.963C179.048 43.6383 179.926 44.5199 179.926 45.599V74.0895H150.074V45.599C150.074 44.5151 150.957 43.6383 152.037 43.6383H152.042Z" stroke="#80858E" stroke-width="0.99" stroke-linecap="round" stroke-linejoin="round"/>
<path d="M153.889 51.4137V74.0943" stroke="#80858E" stroke-width="0.99" stroke-linecap="round" stroke-linejoin="round"/>
<path d="M157.062 51.4137V74.0943" stroke="#80858E" stroke-width="0.99" stroke-linecap="round" stroke-linejoin="round"/>
<path d="M160.24 51.4137V74.0943" stroke="#80858E" stroke-width="0.99" stroke-linecap="round" stroke-linejoin="round"/>
<path d="M163.414 51.4137V74.0943" stroke="#80858E" stroke-width="0.99" stroke-linecap="round" stroke-linejoin="round"/>
<path d="M166.591 51.4137V74.0943" stroke="#80858E" stroke-width="0.99" stroke-linecap="round" stroke-linejoin="round"/>
<path d="M169.77 51.4137V74.0943" stroke="#80858E" stroke-width="0.99" stroke-linecap="round" stroke-linejoin="round"/>
<path d="M172.943 51.4137V74.0943" stroke="#80858E" stroke-width="0.99" stroke-linecap="round" stroke-linejoin="round"/>
<path d="M176.121 51.4137V74.0943" stroke="#80858E" stroke-width="0.99" stroke-linecap="round" stroke-linejoin="round"/>
<path d="M26.6636 256.846L29.9652 361.957" stroke="#80858E" stroke-width="0.99" stroke-linecap="round" stroke-linejoin="round"/>
<path d="M297.622 317.851L302.756 154.542C303.571 128.626 284.5 107.138 260.688 107.138H65.5134C41.7014 107.138 22.6303 128.626 23.4461 154.542L26.0936 238.649" stroke="#80858E" stroke-width="0.99" stroke-linecap="round" stroke-linejoin="round"/>
<path d="M30.9116 391.994L32.4047 439.367C32.7895 451.576 35.3369 463.577 39.97 474.701C52.4994 504.784 107.281 558.592 162.555 558.592C217.829 558.592 273.718 504.784 286.247 474.701C290.881 463.577 293.428 451.576 293.813 439.367L297.107 334.526" stroke="#80858E" stroke-width="0.99" stroke-linecap="round" stroke-linejoin="round"/>
<path d="M121.141 295.781V297.1L116.463 310H114.061L118.748 297.695H112.742V295.781H121.141ZM130.975 301.699V304.023C130.975 305.137 130.877 306.087 130.682 306.875C130.493 307.656 130.223 308.291 129.871 308.779C129.526 309.268 129.109 309.626 128.621 309.854C128.139 310.081 127.602 310.195 127.01 310.195C126.541 310.195 126.102 310.124 125.691 309.98C125.281 309.837 124.91 309.613 124.578 309.307C124.253 309.001 123.973 308.607 123.738 308.125C123.51 307.637 123.331 307.054 123.201 306.377C123.077 305.7 123.016 304.915 123.016 304.023V301.699C123.016 300.579 123.113 299.635 123.309 298.867C123.504 298.092 123.777 297.464 124.129 296.982C124.48 296.494 124.897 296.139 125.379 295.918C125.867 295.697 126.408 295.586 127 295.586C127.469 295.586 127.908 295.658 128.318 295.801C128.729 295.938 129.096 296.156 129.422 296.455C129.747 296.755 130.027 297.145 130.262 297.627C130.496 298.102 130.672 298.678 130.789 299.355C130.913 300.026 130.975 300.807 130.975 301.699ZM128.709 304.365V301.338C128.709 300.778 128.683 300.283 128.631 299.854C128.579 299.424 128.507 299.059 128.416 298.76C128.325 298.46 128.208 298.219 128.064 298.037C127.928 297.848 127.768 297.712 127.586 297.627C127.41 297.536 127.215 297.49 127 297.49C126.733 297.49 126.492 297.559 126.277 297.695C126.069 297.832 125.89 298.053 125.74 298.359C125.597 298.659 125.486 299.056 125.408 299.551C125.33 300.039 125.291 300.635 125.291 301.338V304.365C125.291 304.932 125.317 305.43 125.369 305.859C125.421 306.289 125.496 306.66 125.594 306.973C125.691 307.279 125.809 307.529 125.945 307.725C126.082 307.913 126.238 308.053 126.414 308.145C126.596 308.236 126.795 308.281 127.01 308.281C127.283 308.281 127.524 308.21 127.732 308.066C127.947 307.923 128.126 307.699 128.27 307.393C128.413 307.08 128.52 306.673 128.592 306.172C128.67 305.671 128.709 305.068 128.709 304.365ZM140.975 301.699V304.023C140.975 305.137 140.877 306.087 140.682 306.875C140.493 307.656 140.223 308.291 139.871 308.779C139.526 309.268 139.109 309.626 138.621 309.854C138.139 310.081 137.602 310.195 137.01 310.195C136.541 310.195 136.102 310.124 135.691 309.98C135.281 309.837 134.91 309.613 134.578 309.307C134.253 309.001 133.973 308.607 133.738 308.125C133.51 307.637 133.331 307.054 133.201 306.377C133.077 305.7 133.016 304.915 133.016 304.023V301.699C133.016 300.579 133.113 299.635 133.309 298.867C133.504 298.092 133.777 297.464 134.129 296.982C134.48 296.494 134.897 296.139 135.379 295.918C135.867 295.697 136.408 295.586 137 295.586C137.469 295.586 137.908 295.658 138.318 295.801C138.729 295.938 139.096 296.156 139.422 296.455C139.747 296.755 140.027 297.145 140.262 297.627C140.496 298.102 140.672 298.678 140.789 299.355C140.913 300.026 140.975 300.807 140.975 301.699ZM138.709 304.365V301.338C138.709 300.778 138.683 300.283 138.631 299.854C138.579 299.424 138.507 299.059 138.416 298.76C138.325 298.46 138.208 298.219 138.064 298.037C137.928 297.848 137.768 297.712 137.586 297.627C137.41 297.536 137.215 297.49 137 297.49C136.733 297.49 136.492 297.559 136.277 297.695C136.069 297.832 135.89 298.053 135.74 298.359C135.597 298.659 135.486 299.056 135.408 299.551C135.33 300.039 135.291 300.635 135.291 301.338V304.365C135.291 304.932 135.317 305.43 135.369 305.859C135.421 306.289 135.496 306.66 135.594 306.973C135.691 307.279 135.809 307.529 135.945 307.725C136.082 307.913 136.238 308.053 136.414 308.145C136.596 308.236 136.795 308.281 137.01 308.281C137.283 308.281 137.524 308.21 137.732 308.066C137.947 307.923 138.126 307.699 138.27 307.393C138.413 307.08 138.52 306.673 138.592 306.172C138.67 305.671 138.709 305.068 138.709 304.365ZM151.922 302.002V303.926H143.514V302.002H151.922ZM159.861 295.732V310H157.586V298.584L154.754 299.756V297.773L159.588 295.732H159.861ZM172.166 301.699V304.023C172.166 305.137 172.068 306.087 171.873 306.875C171.684 307.656 171.414 308.291 171.062 308.779C170.717 309.268 170.301 309.626 169.812 309.854C169.331 310.081 168.794 310.195 168.201 310.195C167.732 310.195 167.293 310.124 166.883 309.98C166.473 309.837 166.102 309.613 165.77 309.307C165.444 309.001 165.164 308.607 164.93 308.125C164.702 307.637 164.523 307.054 164.393 306.377C164.269 305.7 164.207 304.915 164.207 304.023V301.699C164.207 300.579 164.305 299.635 164.5 298.867C164.695 298.092 164.969 297.464 165.32 296.982C165.672 296.494 166.089 296.139 166.57 295.918C167.059 295.697 167.599 295.586 168.191 295.586C168.66 295.586 169.1 295.658 169.51 295.801C169.92 295.938 170.288 296.156 170.613 296.455C170.939 296.755 171.219 297.145 171.453 297.627C171.688 298.102 171.863 298.678 171.98 299.355C172.104 300.026 172.166 300.807 172.166 301.699ZM169.9 304.365V301.338C169.9 300.778 169.874 300.283 169.822 299.854C169.77 299.424 169.699 299.059 169.607 298.76C169.516 298.46 169.399 298.219 169.256 298.037C169.119 297.848 168.96 297.712 168.777 297.627C168.602 297.536 168.406 297.49 168.191 297.49C167.924 297.49 167.684 297.559 167.469 297.695C167.26 297.832 167.081 298.053 166.932 298.359C166.788 298.659 166.678 299.056 166.6 299.551C166.521 300.039 166.482 300.635 166.482 301.338V304.365C166.482 304.932 166.508 305.43 166.561 305.859C166.613 306.289 166.688 306.66 166.785 306.973C166.883 307.279 167 307.529 167.137 307.725C167.273 307.913 167.43 308.053 167.605 308.145C167.788 308.236 167.986 308.281 168.201 308.281C168.475 308.281 168.715 308.21 168.924 308.066C169.139 307.923 169.318 307.699 169.461 307.393C169.604 307.08 169.712 306.673 169.783 306.172C169.861 305.671 169.9 305.068 169.9 304.365ZM182.166 301.699V304.023C182.166 305.137 182.068 306.087 181.873 306.875C181.684 307.656 181.414 308.291 181.062 308.779C180.717 309.268 180.301 309.626 179.812 309.854C179.331 310.081 178.794 310.195 178.201 310.195C177.732 310.195 177.293 310.124 176.883 309.98C176.473 309.837 176.102 309.613 175.77 309.307C175.444 309.001 175.164 308.607 174.93 308.125C174.702 307.637 174.523 307.054 174.393 306.377C174.269 305.7 174.207 304.915 174.207 304.023V301.699C174.207 300.579 174.305 299.635 174.5 298.867C174.695 298.092 174.969 297.464 175.32 296.982C175.672 296.494 176.089 296.139 176.57 295.918C177.059 295.697 177.599 295.586 178.191 295.586C178.66 295.586 179.1 295.658 179.51 295.801C179.92 295.938 180.288 296.156 180.613 296.455C180.939 296.755 181.219 297.145 181.453 297.627C181.688 298.102 181.863 298.678 181.98 299.355C182.104 300.026 182.166 300.807 182.166 301.699ZM179.9 304.365V301.338C179.9 300.778 179.874 300.283 179.822 299.854C179.77 299.424 179.699 299.059 179.607 298.76C179.516 298.46 179.399 298.219 179.256 298.037C179.119 297.848 178.96 297.712 178.777 297.627C178.602 297.536 178.406 297.49 178.191 297.49C177.924 297.49 177.684 297.559 177.469 297.695C177.26 297.832 177.081 298.053 176.932 298.359C176.788 298.659 176.678 299.056 176.6 299.551C176.521 300.039 176.482 300.635 176.482 301.338V304.365C176.482 304.932 176.508 305.43 176.561 305.859C176.613 306.289 176.688 306.66 176.785 306.973C176.883 307.279 177 307.529 177.137 307.725C177.273 307.913 177.43 308.053 177.605 308.145C177.788 308.236 177.986 308.281 178.201 308.281C178.475 308.281 178.715 308.21 178.924 308.066C179.139 307.923 179.318 307.699 179.461 307.393C179.604 307.08 179.712 306.673 179.783 306.172C179.861 305.671 179.9 305.068 179.9 304.365ZM192.166 301.699V304.023C192.166 305.137 192.068 306.087 191.873 306.875C191.684 307.656 191.414 308.291 191.062 308.779C190.717 309.268 190.301 309.626 189.812 309.854C189.331 310.081 188.794 310.195 188.201 310.195C187.732 310.195 187.293 310.124 186.883 309.98C186.473 309.837 186.102 309.613 185.77 309.307C185.444 309.001 185.164 308.607 184.93 308.125C184.702 307.637 184.523 307.054 184.393 306.377C184.269 305.7 184.207 304.915 184.207 304.023V301.699C184.207 300.579 184.305 299.635 184.5 298.867C184.695 298.092 184.969 297.464 185.32 296.982C185.672 296.494 186.089 296.139 186.57 295.918C187.059 295.697 187.599 295.586 188.191 295.586C188.66 295.586 189.1 295.658 189.51 295.801C189.92 295.938 190.288 296.156 190.613 296.455C190.939 296.755 191.219 297.145 191.453 297.627C191.688 298.102 191.863 298.678 191.98 299.355C192.104 300.026 192.166 300.807 192.166 301.699ZM189.9 304.365V301.338C189.9 300.778 189.874 300.283 189.822 299.854C189.77 299.424 189.699 299.059 189.607 298.76C189.516 298.46 189.399 298.219 189.256 298.037C189.119 297.848 188.96 297.712 188.777 297.627C188.602 297.536 188.406 297.49 188.191 297.49C187.924 297.49 187.684 297.559 187.469 297.695C187.26 297.832 187.081 298.053 186.932 298.359C186.788 298.659 186.678 299.056 186.6 299.551C186.521 300.039 186.482 300.635 186.482 301.338V304.365C186.482 304.932 186.508 305.43 186.561 305.859C186.613 306.289 186.688 306.66 186.785 306.973C186.883 307.279 187 307.529 187.137 307.725C187.273 307.913 187.43 308.053 187.605 308.145C187.788 308.236 187.986 308.281 188.201 308.281C188.475 308.281 188.715 308.21 188.924 308.066C189.139 307.923 189.318 307.699 189.461 307.393C189.604 307.08 189.712 306.673 189.783 306.172C189.861 305.671 189.9 305.068 189.9 304.365ZM204.324 306.846L206.688 299.434H208.66L205.135 310H203.504L199.969 299.434H201.961L204.324 306.846ZM201.336 299.434V310H199.109V299.434H201.336ZM207.312 310V299.434H209.549V310H207.312ZM217.977 299.434V301.357H213.729V299.434H217.977ZM219.783 299.434V310H217.518V299.434H219.783ZM213.172 299.434H215.428L215.174 304.668C215.135 305.443 215.063 306.126 214.959 306.719C214.861 307.305 214.728 307.806 214.559 308.223C214.389 308.639 214.184 308.978 213.943 309.238C213.702 309.499 213.423 309.691 213.104 309.814C212.791 309.938 212.436 310 212.039 310H211.355L211.346 308.027L211.668 307.988C211.863 307.969 212.033 307.907 212.176 307.803C212.319 307.699 212.439 307.546 212.537 307.344C212.635 307.142 212.713 306.885 212.771 306.572C212.837 306.253 212.885 305.879 212.918 305.449C212.957 305.013 212.986 304.512 213.006 303.945L213.172 299.434Z" fill="#353E48"/>
</svg>
